<svg width="401" height="293" viewBox="0 0 401 293" fill="none" xmlns="http://www.w3.org/2000/svg">
<g id="Group 1">
<path id="Vector 7" d="M399 107L363 59" stroke="black"/>
<path id="Vector 1" d="M107.964 157.422L113.991 74.045C111.982 64.6694 118.009 39.6898 158.191 14.7773C208.418 -16.3634 282.753 10.7591 290.79 14.7773C298.826 18.7954 307.867 46.9225 304.853 50.9407C301.84 54.9588 301.84 87.104 321.93 94.1358C338.003 99.7612 328.627 138.67 321.93 157.422C318.247 171.15 305.255 199.411 282.753 202.626C260.252 205.84 233.866 191.241 223.486 183.54C213.44 174.834 186.318 161.239 158.191 176.508C130.064 191.777 112.986 170.146 107.964 157.422Z" fill="white"/>
<g id="center">
<circle id="Ellipse 1" cx="185.958" cy="100.279" r="33.4262" fill="#E4FC52"/>
<path id="Vector" d="M166.153 92.7412C166.153 84.7476 172.656 78.2444 180.649 78.2444C181.597 78.2444 182.366 79.0132 182.366 79.9607C182.366 80.9082 181.597 81.677 180.649 81.677C174.548 81.677 169.585 86.6399 169.585 92.7412C169.585 93.6887 168.816 94.4575 167.869 94.4575C166.921 94.4575 166.153 93.6887 166.153 92.7412Z" fill="white" stroke="white" stroke-width="0.5"/>
</g>
<path id="Vector 10" d="M196.479 220.613L177.182 275.482" stroke="black"/>
<path id="Vector 11" d="M299.643 229.983L280.347 284.852" stroke="black"/>
<path id="Vector 4" d="M333.033 106.964H401" stroke="black"/>
<path id="Vector 5" d="M39.9972 106.964H107.964" stroke="black"/>
<path id="Vector 6" d="M41.1114 106.964L1 53.4819" stroke="black"/>
<path id="Vector 2" d="M177.045 56.2894C180.646 51.7876 190.145 45.485 199.329 56.2894" stroke="black"/>
<path id="Vector 3" d="M229.412 56.105C233.014 51.6031 242.513 45.3005 251.696 56.105" stroke="black"/>
<path id="Ellipse 2" d="M251.696 80.2228C251.696 82.6843 247.706 84.6797 242.783 84.6797C237.86 84.6797 233.869 82.6843 233.869 80.2228C233.869 77.7614 237.86 75.766 242.783 75.766C247.706 75.766 251.696 77.7614 251.696 80.2228Z" fill="#252424"/>
<path id="Vector 8" d="M271.73 202.833L299.63 230.621" stroke="black"/>
<path id="Vector 9" d="M161.575 175.066L196.335 221.7" stroke="black"/>
<path id="Vector 12" d="M169.672 275.347C174.063 271.434 176.492 273.717 177.158 275.347C182.813 273.173 195.822 270.13 202.609 275.347C209.396 280.564 205.437 288.934 202.609 292.466H167.177C166.179 288.39 165.28 279.26 169.672 275.347Z" fill="#69AD4A" stroke="black"/>
<path id="Vector 13" d="M276.315 273.881C280.707 269.968 283.136 272.25 283.801 273.881C289.457 271.707 302.466 268.663 309.253 273.881C316.04 279.098 312.08 287.467 309.253 291H273.82C272.822 286.924 271.924 277.794 276.315 273.881Z" fill="#69AD4A" stroke="black"/>
</g>
</svg>
