<svg width="401" height="306" viewBox="0 0 401 306" fill="none" xmlns="http://www.w3.org/2000/svg">
<g id="Group 1">
<path id="Vector 7" d="M399 125L363 77" stroke="black"/>
<path id="Vector 1" d="M107.964 175.422L113.991 92.045C111.982 82.6694 118.009 57.6898 158.191 32.7773C208.418 1.63659 282.754 28.7591 290.79 32.7773C298.826 36.7954 307.867 64.9225 304.853 68.9407C301.84 72.9588 301.84 105.104 321.931 112.136C338.003 117.761 328.627 156.67 321.931 175.422C318.247 189.15 305.255 217.411 282.754 220.626C260.252 223.84 233.866 209.241 223.486 201.54C213.44 192.834 186.318 179.239 158.191 194.508C130.064 209.777 112.986 188.146 107.964 175.422Z" fill="white"/>
<g id="center">
<circle id="Ellipse 1" cx="185.958" cy="118.279" r="33.4262" fill="#E4FC52"/>
<path id="Vector" d="M166.153 110.741C166.153 102.748 172.656 96.2444 180.649 96.2444C181.597 96.2444 182.366 97.0132 182.366 97.9607C182.366 98.9082 181.597 99.677 180.649 99.677C174.548 99.677 169.585 104.64 169.585 110.741C169.585 111.689 168.816 112.458 167.869 112.458C166.921 112.458 166.153 111.689 166.153 110.741Z" fill="white" stroke="white" stroke-width="0.5"/>
</g>
<path id="Vector 4" d="M333.033 124.964H401" stroke="black"/>
<path id="Vector 5" d="M39.9972 124.964H107.964" stroke="black"/>
<path id="Vector 6" d="M41.1114 124.964L1 71.4819" stroke="black"/>
<path id="Vector 2" d="M177.045 74.2894C180.646 69.7876 190.145 63.485 199.329 74.2894" stroke="black"/>
<path id="Vector 3" d="M229.412 74.105C233.014 69.6031 242.513 63.3005 251.696 74.105" stroke="black"/>
<path id="Ellipse 2" d="M251.696 98.2228C251.696 100.684 247.706 102.68 242.783 102.68C237.86 102.68 233.869 100.684 233.869 98.2228C233.869 95.7614 237.86 93.766 242.783 93.766C247.706 93.766 251.696 95.7614 251.696 98.2228Z" fill="#252424"/>
<path id="Vector 9" d="M171.501 189.329L123.449 300.738" stroke="black"/>
<path id="Vector 11" d="M237.858 209.722L282.072 301.059" stroke="black"/>
<path id="Yahoo!" d="M294.307 3.27273H295.517L297.938 7.34659H298.04L300.46 3.27273H301.67L298.517 8.40341V12H297.46V8.40341L294.307 3.27273ZM303.972 12.1534C303.557 12.1534 303.18 12.0753 302.842 11.919C302.504 11.7599 302.236 11.5312 302.037 11.233C301.838 10.9318 301.739 10.5682 301.739 10.142C301.739 9.76705 301.813 9.46307 301.96 9.23011C302.108 8.99432 302.305 8.80966 302.553 8.67614C302.8 8.54261 303.072 8.44318 303.371 8.37784C303.672 8.30966 303.974 8.25568 304.278 8.21591C304.676 8.16477 304.999 8.12642 305.246 8.10085C305.496 8.07244 305.678 8.02557 305.791 7.96023C305.908 7.89489 305.966 7.78125 305.966 7.61932V7.58523C305.966 7.16477 305.851 6.83807 305.621 6.60511C305.393 6.37216 305.048 6.25568 304.585 6.25568C304.105 6.25568 303.729 6.3608 303.456 6.57102C303.183 6.78125 302.991 7.00568 302.881 7.24432L301.926 6.90341C302.097 6.50568 302.324 6.19602 302.608 5.97443C302.895 5.75 303.207 5.59375 303.545 5.50568C303.886 5.41477 304.222 5.36932 304.551 5.36932C304.761 5.36932 305.003 5.39489 305.276 5.44602C305.551 5.49432 305.817 5.59517 306.072 5.74858C306.331 5.90199 306.545 6.13352 306.716 6.44318C306.886 6.75284 306.972 7.16761 306.972 7.6875V12H305.966V11.1136H305.915C305.847 11.2557 305.733 11.4077 305.574 11.5696C305.415 11.7315 305.203 11.8693 304.939 11.983C304.675 12.0966 304.352 12.1534 303.972 12.1534ZM304.125 11.25C304.523 11.25 304.858 11.1719 305.131 11.0156C305.406 10.8594 305.614 10.6577 305.753 10.4105C305.895 10.1634 305.966 9.90341 305.966 9.63068V8.71023C305.923 8.76136 305.83 8.80824 305.685 8.85085C305.543 8.89062 305.378 8.92614 305.19 8.95739C305.006 8.9858 304.825 9.01136 304.649 9.03409C304.476 9.05398 304.335 9.07102 304.227 9.08523C303.966 9.11932 303.722 9.17472 303.494 9.25142C303.27 9.32528 303.088 9.4375 302.949 9.58807C302.813 9.7358 302.744 9.9375 302.744 10.1932C302.744 10.5426 302.874 10.8068 303.132 10.9858C303.393 11.1619 303.724 11.25 304.125 11.25ZM309.813 8.0625V12H308.807V3.27273H309.813V6.47727H309.898C310.051 6.1392 310.282 5.87074 310.588 5.67188C310.898 5.47017 311.31 5.36932 311.824 5.36932C312.27 5.36932 312.661 5.45881 312.996 5.63778C313.331 5.81392 313.591 6.08523 313.776 6.4517C313.963 6.81534 314.057 7.27841 314.057 7.84091V12H313.051V7.90909C313.051 7.3892 312.917 6.98722 312.647 6.70312C312.38 6.41619 312.009 6.27273 311.534 6.27273C311.205 6.27273 310.909 6.34233 310.648 6.48153C310.39 6.62074 310.185 6.82386 310.034 7.09091C309.887 7.35795 309.813 7.68182 309.813 8.0625ZM318.556 12.1364C317.965 12.1364 317.447 11.9957 317.001 11.7145C316.558 11.4332 316.211 11.0398 315.961 10.5341C315.714 10.0284 315.59 9.4375 315.59 8.76136C315.59 8.07955 315.714 7.48437 315.961 6.97585C316.211 6.46733 316.558 6.07244 317.001 5.79119C317.447 5.50994 317.965 5.36932 318.556 5.36932C319.147 5.36932 319.664 5.50994 320.107 5.79119C320.553 6.07244 320.9 6.46733 321.147 6.97585C321.397 7.48437 321.522 8.07955 321.522 8.76136C321.522 9.4375 321.397 10.0284 321.147 10.5341C320.9 11.0398 320.553 11.4332 320.107 11.7145C319.664 11.9957 319.147 12.1364 318.556 12.1364ZM318.556 11.233C319.005 11.233 319.374 11.1179 319.664 10.8878C319.954 10.6577 320.168 10.3551 320.308 9.98011C320.447 9.60511 320.516 9.19886 320.516 8.76136C320.516 8.32386 320.447 7.91619 320.308 7.53835C320.168 7.16051 319.954 6.85511 319.664 6.62216C319.374 6.3892 319.005 6.27273 318.556 6.27273C318.107 6.27273 317.738 6.3892 317.448 6.62216C317.158 6.85511 316.944 7.16051 316.805 7.53835C316.665 7.91619 316.596 8.32386 316.596 8.76136C316.596 9.19886 316.665 9.60511 316.805 9.98011C316.944 10.3551 317.158 10.6577 317.448 10.8878C317.738 11.1179 318.107 11.233 318.556 11.233ZM325.716 12.1364C325.125 12.1364 324.607 11.9957 324.161 11.7145C323.718 11.4332 323.371 11.0398 323.121 10.5341C322.874 10.0284 322.75 9.4375 322.75 8.76136C322.75 8.07955 322.874 7.48437 323.121 6.97585C323.371 6.46733 323.718 6.07244 324.161 5.79119C324.607 5.50994 325.125 5.36932 325.716 5.36932C326.307 5.36932 326.824 5.50994 327.267 5.79119C327.713 6.07244 328.06 6.46733 328.307 6.97585C328.557 7.48437 328.682 8.07955 328.682 8.76136C328.682 9.4375 328.557 10.0284 328.307 10.5341C328.06 11.0398 327.713 11.4332 327.267 11.7145C326.824 11.9957 326.307 12.1364 325.716 12.1364ZM325.716 11.233C326.165 11.233 326.534 11.1179 326.824 10.8878C327.114 10.6577 327.328 10.3551 327.468 9.98011C327.607 9.60511 327.676 9.19886 327.676 8.76136C327.676 8.32386 327.607 7.91619 327.468 7.53835C327.328 7.16051 327.114 6.85511 326.824 6.62216C326.534 6.3892 326.165 6.27273 325.716 6.27273C325.267 6.27273 324.898 6.3892 324.608 6.62216C324.319 6.85511 324.104 7.16051 323.965 7.53835C323.826 7.91619 323.756 8.32386 323.756 8.76136C323.756 9.19886 323.826 9.60511 323.965 9.98011C324.104 10.3551 324.319 10.6577 324.608 10.8878C324.898 11.1179 325.267 11.233 325.716 11.233ZM331.547 3.27273L331.462 9.54545H330.473L330.388 3.27273H331.547ZM330.967 12.0682C330.757 12.0682 330.577 11.9929 330.426 11.8423C330.276 11.6918 330.2 11.5114 330.2 11.3011C330.2 11.0909 330.276 10.9105 330.426 10.7599C330.577 10.6094 330.757 10.5341 330.967 10.5341C331.178 10.5341 331.358 10.6094 331.509 10.7599C331.659 10.9105 331.734 11.0909 331.734 11.3011C331.734 11.4403 331.699 11.5682 331.628 11.6847C331.56 11.8011 331.467 11.8949 331.351 11.9659C331.237 12.0341 331.109 12.0682 330.967 12.0682Z" fill="black"/>
</g>
</svg>
