<svg width="401" height="306" viewBox="0 0 401 306" fill="none" xmlns="http://www.w3.org/2000/svg">
<g id="Group 1">
<path id="Vector 7" d="M399 125L363 77" stroke="black"/>
<path id="Vector 1" d="M107.964 175.422L113.991 92.045C111.982 82.6694 118.009 57.6898 158.191 32.7773C208.418 1.63659 282.754 28.7591 290.79 32.7773C298.826 36.7954 307.867 64.9225 304.853 68.9407C301.84 72.9588 301.84 105.104 321.931 112.136C338.003 117.761 328.627 156.67 321.931 175.422C318.247 189.15 305.255 217.411 282.754 220.626C260.252 223.84 233.866 209.241 223.486 201.54C213.44 192.834 186.318 179.239 158.191 194.508C130.064 209.777 112.986 188.146 107.964 175.422Z" fill="white"/>
<g id="center">
<circle id="Ellipse 1" cx="185.958" cy="118.279" r="33.4262" fill="#E4FC52"/>
<path id="Vector" d="M166.153 110.741C166.153 102.748 172.656 96.2444 180.649 96.2444C181.597 96.2444 182.366 97.0132 182.366 97.9607C182.366 98.9082 181.597 99.677 180.649 99.677C174.548 99.677 169.585 104.64 169.585 110.741C169.585 111.689 168.816 112.458 167.869 112.458C166.921 112.458 166.153 111.689 166.153 110.741Z" fill="white" stroke="white" stroke-width="0.5"/>
</g>
<path id="Vector 4" d="M333.033 124.964H401" stroke="black"/>
<path id="Vector 5" d="M39.9972 124.964H107.964" stroke="black"/>
<path id="Vector 6" d="M41.1114 124.964L1 71.4819" stroke="black"/>
<path id="Vector 2" d="M177.045 74.2894C180.646 69.7876 190.145 63.485 199.329 74.2894" stroke="black"/>
<path id="Vector 3" d="M229.412 74.105C233.014 69.6031 242.513 63.3005 251.696 74.105" stroke="black"/>
<path id="Ellipse 2" d="M251.696 98.2228C251.696 100.684 247.706 102.68 242.783 102.68C237.86 102.68 233.869 100.684 233.869 98.2228C233.869 95.7614 237.86 93.766 242.783 93.766C247.706 93.766 251.696 95.7614 251.696 98.2228Z" fill="#252424"/>
<path id="Vector 9" d="M171.501 189.329L123.449 300.738" stroke="black"/>
<path id="Vector 11" d="M237.858 209.722L282.072 301.059" stroke="black"/>
<g id="Yahoo!">
<path d="M294.767 7.18182H297.793L303.844 17.3665H304.099L310.151 7.18182H313.176L305.293 20.0085V29H302.651V20.0085L294.767 7.18182ZM318.929 29.3835C317.892 29.3835 316.951 29.1882 316.106 28.7976C315.261 28.3999 314.589 27.8281 314.092 27.0824C313.595 26.3295 313.347 25.4205 313.347 24.3551C313.347 23.4176 313.531 22.6577 313.901 22.0753C314.27 21.4858 314.763 21.0241 315.381 20.6903C315.999 20.3565 316.681 20.108 317.427 19.9446C318.18 19.7741 318.936 19.6392 319.696 19.5398C320.69 19.4119 321.496 19.3161 322.114 19.2521C322.739 19.1811 323.194 19.0639 323.478 18.9006C323.769 18.7372 323.915 18.4531 323.915 18.0483V17.9631C323.915 16.9119 323.627 16.0952 323.052 15.5128C322.484 14.9304 321.621 14.6392 320.463 14.6392C319.263 14.6392 318.322 14.902 317.64 15.4276C316.958 15.9531 316.479 16.5142 316.202 17.1108L313.815 16.2585C314.241 15.2642 314.81 14.4901 315.52 13.9361C316.237 13.375 317.018 12.9844 317.864 12.7642C318.716 12.5369 319.554 12.4233 320.378 12.4233C320.903 12.4233 321.507 12.4872 322.189 12.6151C322.878 12.7358 323.542 12.9879 324.181 13.3714C324.827 13.755 325.364 14.3338 325.79 15.108C326.216 15.8821 326.429 16.919 326.429 18.2188V29H323.915V26.7841H323.787C323.616 27.1392 323.332 27.5192 322.935 27.924C322.537 28.3288 322.008 28.6733 321.347 28.9574C320.687 29.2415 319.881 29.3835 318.929 29.3835ZM319.312 27.125C320.307 27.125 321.145 26.9297 321.827 26.5391C322.516 26.1484 323.034 25.6442 323.382 25.0263C323.737 24.4084 323.915 23.7585 323.915 23.0767V20.7756C323.808 20.9034 323.574 21.0206 323.212 21.1271C322.857 21.2266 322.445 21.3153 321.976 21.3935C321.514 21.4645 321.063 21.5284 320.623 21.5852C320.19 21.6349 319.838 21.6776 319.568 21.7131C318.915 21.7983 318.304 21.9368 317.736 22.1286C317.175 22.3132 316.72 22.5937 316.372 22.9702C316.031 23.3395 315.861 23.8437 315.861 24.483C315.861 25.3565 316.184 26.017 316.83 26.4645C317.484 26.9048 318.311 27.125 319.312 27.125ZM333.532 19.1562V29H331.018V7.18182H333.532V15.1932H333.745C334.129 14.348 334.704 13.6768 335.471 13.1797C336.245 12.6754 337.275 12.4233 338.561 12.4233C339.676 12.4233 340.652 12.647 341.49 13.0945C342.328 13.5348 342.978 14.2131 343.44 15.1293C343.909 16.0384 344.143 17.196 344.143 18.6023V29H341.629V18.7727C341.629 17.473 341.291 16.468 340.617 15.7578C339.949 15.0405 339.022 14.6818 337.836 14.6818C337.012 14.6818 336.274 14.8558 335.62 15.2038C334.974 15.5518 334.463 16.0597 334.086 16.7273C333.717 17.3949 333.532 18.2045 333.532 19.1562ZM355.39 29.3409C353.913 29.3409 352.617 28.9893 351.502 28.2862C350.394 27.5831 349.527 26.5994 348.902 25.3352C348.284 24.071 347.975 22.5937 347.975 20.9034C347.975 19.1989 348.284 17.7109 348.902 16.4396C349.527 15.1683 350.394 14.1811 351.502 13.478C352.617 12.7749 353.913 12.4233 355.39 12.4233C356.868 12.4233 358.16 12.7749 359.268 13.478C360.383 14.1811 361.25 15.1683 361.868 16.4396C362.493 17.7109 362.805 19.1989 362.805 20.9034C362.805 22.5937 362.493 24.071 361.868 25.3352C361.25 26.5994 360.383 27.5831 359.268 28.2862C358.16 28.9893 356.868 29.3409 355.39 29.3409ZM355.39 27.0824C356.512 27.0824 357.436 26.7947 358.16 26.2195C358.885 25.6442 359.421 24.8878 359.769 23.9503C360.117 23.0128 360.291 21.9972 360.291 20.9034C360.291 19.8097 360.117 18.7905 359.769 17.8459C359.421 16.9013 358.885 16.1378 358.16 15.5554C357.436 14.973 356.512 14.6818 355.39 14.6818C354.268 14.6818 353.345 14.973 352.62 15.5554C351.896 16.1378 351.36 16.9013 351.012 17.8459C350.664 18.7905 350.49 19.8097 350.49 20.9034C350.49 21.9972 350.664 23.0128 351.012 23.9503C351.36 24.8878 351.896 25.6442 352.62 26.2195C353.345 26.7947 354.268 27.0824 355.39 27.0824ZM373.291 29.3409C371.813 29.3409 370.517 28.9893 369.402 28.2862C368.294 27.5831 367.428 26.5994 366.803 25.3352C366.185 24.071 365.876 22.5937 365.876 20.9034C365.876 19.1989 366.185 17.7109 366.803 16.4396C367.428 15.1683 368.294 14.1811 369.402 13.478C370.517 12.7749 371.813 12.4233 373.291 12.4233C374.768 12.4233 376.061 12.7749 377.169 13.478C378.284 14.1811 379.15 15.1683 379.768 16.4396C380.393 17.7109 380.705 19.1989 380.705 20.9034C380.705 22.5937 380.393 24.071 379.768 25.3352C379.15 26.5994 378.284 27.5831 377.169 28.2862C376.061 28.9893 374.768 29.3409 373.291 29.3409ZM373.291 27.0824C374.413 27.0824 375.336 26.7947 376.061 26.2195C376.785 25.6442 377.321 24.8878 377.669 23.9503C378.017 23.0128 378.191 21.9972 378.191 20.9034C378.191 19.8097 378.017 18.7905 377.669 17.8459C377.321 16.9013 376.785 16.1378 376.061 15.5554C375.336 14.973 374.413 14.6818 373.291 14.6818C372.169 14.6818 371.245 14.973 370.521 15.5554C369.796 16.1378 369.26 16.9013 368.912 17.8459C368.564 18.7905 368.39 19.8097 368.39 20.9034C368.39 21.9972 368.564 23.0128 368.912 23.9503C369.26 24.8878 369.796 25.6442 370.521 26.2195C371.245 26.7947 372.169 27.0824 373.291 27.0824ZM387.867 7.18182L387.654 22.8636H385.183L384.969 7.18182H387.867ZM386.418 29.1705C385.893 29.1705 385.442 28.9822 385.065 28.6058C384.689 28.2294 384.501 27.7784 384.501 27.2528C384.501 26.7273 384.689 26.2763 385.065 25.8999C385.442 25.5234 385.893 25.3352 386.418 25.3352C386.944 25.3352 387.395 25.5234 387.771 25.8999C388.148 26.2763 388.336 26.7273 388.336 27.2528C388.336 27.6009 388.247 27.9205 388.07 28.2116C387.899 28.5028 387.668 28.7372 387.377 28.9148C387.093 29.0852 386.773 29.1705 386.418 29.1705Z" fill="#E4FC52"/>
<path d="M294.767 7.18182V6.18182H292.979L293.915 7.70544L294.767 7.18182ZM297.793 7.18182L298.652 6.67103L298.362 6.18182H297.793V7.18182ZM303.844 17.3665L302.984 17.8773L303.275 18.3665H303.844V17.3665ZM304.099 17.3665V18.3665H304.668L304.959 17.8773L304.099 17.3665ZM310.151 7.18182V6.18182H309.582L309.291 6.67103L310.151 7.18182ZM313.176 7.18182L314.028 7.70544L314.965 6.18182H313.176V7.18182ZM305.293 20.0085L304.441 19.4849L304.293 19.7258V20.0085H305.293ZM305.293 29V30H306.293V29H305.293ZM302.651 29H301.651V30H302.651V29ZM302.651 20.0085H303.651V19.7258L303.503 19.4849L302.651 20.0085ZM294.767 8.18182H297.793V6.18182H294.767V8.18182ZM296.933 7.69261L302.984 17.8773L304.703 16.8557L298.652 6.67103L296.933 7.69261ZM303.844 18.3665H304.099V16.3665H303.844V18.3665ZM304.959 17.8773L311.01 7.69261L309.291 6.67103L303.24 16.8557L304.959 17.8773ZM310.151 8.18182H313.176V6.18182H310.151V8.18182ZM312.324 6.65819L304.441 19.4849L306.145 20.5321L314.028 7.70544L312.324 6.65819ZM304.293 20.0085V29H306.293V20.0085H304.293ZM305.293 28H302.651V30H305.293V28ZM303.651 29V20.0085H301.651V29H303.651ZM303.503 19.4849L295.619 6.65819L293.915 7.70544L301.799 20.5321L303.503 19.4849ZM316.106 28.7976L315.68 29.7024L315.686 29.7053L316.106 28.7976ZM314.092 27.0824L313.258 27.6335L313.26 27.6371L314.092 27.0824ZM313.901 22.0753L314.745 22.6108L314.748 22.6062L313.901 22.0753ZM315.381 20.6903L315.857 21.5702L315.381 20.6903ZM317.427 19.9446L317.641 20.9215L317.648 20.9199L317.427 19.9446ZM319.696 19.5398L319.569 18.5479L319.566 18.5482L319.696 19.5398ZM322.114 19.2521L322.217 20.2469L322.227 20.2457L322.114 19.2521ZM323.478 18.9006L322.989 18.0284L322.98 18.0337L323.478 18.9006ZM323.052 15.5128L322.336 16.2111L322.34 16.2155L323.052 15.5128ZM317.64 15.4276L318.25 16.2196L318.25 16.2196L317.64 15.4276ZM316.202 17.1108L315.865 18.0525L316.725 18.3594L317.109 17.5319L316.202 17.1108ZM313.815 16.2585L312.896 15.8646L312.477 16.8424L313.479 17.2003L313.815 16.2585ZM315.52 13.9361L316.135 14.7246L316.136 14.7237L315.52 13.9361ZM317.864 12.7642L318.116 13.7319L318.121 13.7304L317.864 12.7642ZM322.189 12.6151L322.005 13.598L322.016 13.6L322.189 12.6151ZM324.181 13.3714L323.667 14.229L323.671 14.2314L324.181 13.3714ZM325.79 15.108L324.914 15.5902L324.914 15.5902L325.79 15.108ZM326.429 29V30H327.429V29H326.429ZM323.915 29H322.915V30H323.915V29ZM323.915 26.7841H324.915V25.7841H323.915V26.7841ZM323.787 26.7841V25.7841H323.158L322.885 26.3514L323.787 26.7841ZM322.935 27.924L323.648 28.6248L323.648 28.6248L322.935 27.924ZM321.347 28.9574L320.952 28.0388L321.347 28.9574ZM321.827 26.5391L321.333 25.6692L321.33 25.6714L321.827 26.5391ZM323.382 25.0263L322.515 24.528L322.511 24.5355L323.382 25.0263ZM323.915 20.7756H324.915V18.0135L323.147 20.1354L323.915 20.7756ZM323.212 21.1271L323.481 22.0902L323.494 22.0865L323.212 21.1271ZM321.976 21.3935L322.128 22.3819L322.14 22.3799L321.976 21.3935ZM320.623 21.5852L320.737 22.5788L320.751 22.577L320.623 21.5852ZM319.568 21.7131L319.698 22.7047L319.699 22.7045L319.568 21.7131ZM317.736 22.1286L318.048 23.0785L318.056 23.076L317.736 22.1286ZM316.372 22.9702L315.638 22.2913L315.637 22.2919L316.372 22.9702ZM316.83 26.4645L316.261 27.2867L316.271 27.2938L316.83 26.4645ZM318.929 28.3835C318.02 28.3835 317.225 28.2131 316.525 27.8898L315.686 29.7053C316.677 30.1633 317.764 30.3835 318.929 30.3835V28.3835ZM316.532 27.8928C315.844 27.5692 315.316 27.1154 314.924 26.5277L313.26 27.6371C313.863 28.5409 314.677 29.2306 315.68 29.7024L316.532 27.8928ZM314.927 26.5313C314.556 25.9697 314.347 25.2606 314.347 24.3551H312.347C312.347 25.5803 312.634 26.6894 313.258 27.6334L314.927 26.5313ZM314.347 24.3551C314.347 23.5412 314.508 22.9852 314.745 22.6108L313.056 21.5397C312.555 22.3302 312.347 23.294 312.347 24.3551H314.347ZM314.748 22.6062C315.025 22.1647 315.389 21.8226 315.857 21.5702L314.906 19.8105C314.138 20.2257 313.515 20.8069 313.053 21.5444L314.748 22.6062ZM315.857 21.5702C316.386 21.2844 316.978 21.0665 317.641 20.9214L317.213 18.9678C316.384 19.1494 315.613 19.4287 314.906 19.8105L315.857 21.5702ZM317.648 20.9199C318.371 20.7562 319.097 20.6267 319.826 20.5313L319.566 18.5482C318.776 18.6517 317.989 18.7921 317.206 18.9693L317.648 20.9199ZM319.824 20.5316C320.814 20.4043 321.611 20.3095 322.217 20.2468L322.011 18.2574C321.382 18.3226 320.567 18.4196 319.569 18.5479L319.824 20.5316ZM322.227 20.2457C322.886 20.1709 323.509 20.0362 323.976 19.7675L322.98 18.0337C322.879 18.0916 322.593 18.1913 322.001 18.2585L322.227 20.2457ZM323.967 19.7727C324.646 19.392 324.915 18.7239 324.915 18.0483H322.915C322.915 18.1335 322.899 18.1408 322.916 18.1089C322.924 18.0927 322.937 18.0741 322.954 18.0569C322.97 18.0399 322.984 18.0312 322.989 18.0284L323.967 19.7727ZM324.915 18.0483V17.9631H322.915V18.0483H324.915ZM324.915 17.9631C324.915 16.7269 324.572 15.6286 323.763 14.81L322.34 16.2155C322.682 16.5617 322.915 17.0969 322.915 17.9631H324.915ZM323.768 14.8145C322.944 13.9698 321.775 13.6392 320.463 13.6392V15.6392C321.467 15.6392 322.024 15.891 322.336 16.2111L323.768 14.8145ZM320.463 13.6392C319.127 13.6392 317.944 13.9309 317.029 14.6355L318.25 16.2196C318.7 15.8731 319.398 15.6392 320.463 15.6392V13.6392ZM317.029 14.6355C316.258 15.2299 315.657 15.9095 315.295 16.6897L317.109 17.5319C317.3 17.1189 317.658 16.6763 318.25 16.2196L317.029 14.6355ZM316.538 16.1691L314.152 15.3168L313.479 17.2003L315.865 18.0525L316.538 16.1691ZM314.734 16.6524C315.107 15.7821 315.582 15.1558 316.135 14.7246L314.905 13.1476C314.037 13.8243 313.375 14.7463 312.896 15.8646L314.734 16.6524ZM316.136 14.7237C316.75 14.2433 317.409 13.9161 318.116 13.7319L317.612 11.7965C316.628 12.0526 315.724 12.5067 314.904 13.1484L316.136 14.7237ZM318.121 13.7304C318.895 13.524 319.647 13.4233 320.378 13.4233V11.4233C319.461 11.4233 318.536 11.5499 317.606 11.798L318.121 13.7304ZM320.378 13.4233C320.826 13.4233 321.366 13.4781 322.005 13.5979L322.373 11.6322C321.649 11.4963 320.981 11.4233 320.378 11.4233V13.4233ZM322.016 13.6C322.577 13.6982 323.126 13.9043 323.667 14.2289L324.696 12.514C323.958 12.0715 323.179 11.7733 322.362 11.6301L322.016 13.6ZM323.671 14.2314C324.139 14.509 324.558 14.9446 324.914 15.5902L326.666 14.6257C326.169 13.723 325.516 13.0009 324.691 12.5115L323.671 14.2314ZM324.914 15.5902C325.229 16.1632 325.429 17.0139 325.429 18.2188H327.429C327.429 16.8242 327.203 15.601 326.666 14.6257L324.914 15.5902ZM325.429 18.2188V29H327.429V18.2188H325.429ZM326.429 28H323.915V30H326.429V28ZM324.915 29V26.7841H322.915V29H324.915ZM323.915 25.7841H323.787V27.7841H323.915V25.7841ZM322.885 26.3514C322.778 26.5742 322.573 26.8653 322.221 27.2232L323.648 28.6248C324.092 28.1731 324.454 27.7043 324.688 27.2168L322.885 26.3514ZM322.221 27.2232C321.935 27.5143 321.524 27.7928 320.952 28.0388L321.742 29.876C322.492 29.5538 323.139 29.1433 323.648 28.6248L322.221 27.2232ZM320.952 28.0388C320.45 28.2548 319.787 28.3835 318.929 28.3835V30.3835C319.975 30.3835 320.924 30.2281 321.742 29.876L320.952 28.0388ZM319.312 28.125C320.436 28.125 321.456 27.9042 322.324 27.4067L321.33 25.6714C320.834 25.9552 320.178 26.125 319.312 26.125V28.125ZM322.32 27.409C323.148 26.9394 323.806 26.3113 324.253 25.517L322.511 24.5355C322.262 24.9771 321.883 25.3575 321.333 25.6692L322.32 27.409ZM324.249 25.5246C324.687 24.7622 324.915 23.9414 324.915 23.0767H322.915C322.915 23.5756 322.787 24.0546 322.515 24.528L324.249 25.5246ZM324.915 23.0767V20.7756H322.915V23.0767H324.915ZM323.147 20.1354C323.186 20.0882 323.218 20.0639 323.227 20.0574C323.237 20.0505 323.234 20.0538 323.212 20.0649C323.165 20.0883 323.076 20.1246 322.929 20.1678L323.494 22.0865C323.709 22.0231 323.919 21.9476 324.106 21.8538C324.284 21.7651 324.505 21.629 324.683 21.4157L323.147 20.1354ZM322.942 20.1642C322.63 20.2516 322.254 20.3333 321.811 20.4071L322.14 22.3799C322.635 22.2974 323.083 22.2015 323.481 22.0901L322.942 20.1642ZM321.824 20.4051C321.37 20.4749 320.927 20.5377 320.495 20.5934L320.751 22.577C321.2 22.5191 321.659 22.454 322.128 22.3818L321.824 20.4051ZM320.509 20.5917C320.073 20.6418 319.715 20.6851 319.438 20.7216L319.699 22.7045C319.961 22.67 320.306 22.6281 320.737 22.5787L320.509 20.5917ZM319.439 20.7215C318.727 20.8143 318.052 20.9665 317.416 21.1811L318.056 23.076C318.556 22.9071 319.103 22.7823 319.698 22.7047L319.439 20.7215ZM317.423 21.1787C316.726 21.4082 316.118 21.7724 315.638 22.2913L317.106 23.649C317.323 23.4151 317.624 23.2182 318.048 23.0784L317.423 21.1787ZM315.637 22.2919C315.083 22.8921 314.861 23.6632 314.861 24.483H316.861C316.861 24.0243 316.979 23.7868 317.107 23.6485L315.637 22.2919ZM314.861 24.483C314.861 25.642 315.312 26.6294 316.261 27.2867L317.399 25.6423C317.056 25.4047 316.861 25.0711 316.861 24.483H314.861ZM316.271 27.2938C317.13 27.8721 318.166 28.125 319.312 28.125V26.125C318.456 26.125 317.838 25.9376 317.389 25.6352L316.271 27.2938ZM333.532 29V30H334.532V29H333.532ZM331.018 29H330.018V30H331.018V29ZM331.018 7.18182V6.18182H330.018V7.18182H331.018ZM333.532 7.18182H334.532V6.18182H333.532V7.18182ZM333.532 15.1932H332.532V16.1932H333.532V15.1932ZM333.745 15.1932V16.1932H334.39L334.656 15.6064L333.745 15.1932ZM335.471 13.1797L336.015 14.0188L336.017 14.0176L335.471 13.1797ZM341.49 13.0945L341.019 13.9766L341.025 13.9797L341.49 13.0945ZM343.44 15.1293L342.547 15.5793L342.551 15.5876L343.44 15.1293ZM344.143 29V30H345.143V29H344.143ZM341.629 29H340.629V30H341.629V29ZM340.617 15.7578L339.885 16.4391L339.892 16.4466L340.617 15.7578ZM335.62 15.2038L335.15 14.3212L335.146 14.3234L335.62 15.2038ZM334.086 16.7273L333.215 16.2361L333.211 16.2432L334.086 16.7273ZM332.532 19.1562V29H334.532V19.1562H332.532ZM333.532 28H331.018V30H333.532V28ZM332.018 29V7.18182H330.018V29H332.018ZM331.018 8.18182H333.532V6.18182H331.018V8.18182ZM332.532 7.18182V15.1932H334.532V7.18182H332.532ZM333.532 16.1932H333.745V14.1932H333.532V16.1932ZM334.656 15.6064C334.962 14.9325 335.411 14.4103 336.015 14.0188L334.927 12.3405C333.997 12.9434 333.296 13.7635 332.835 14.78L334.656 15.6064ZM336.017 14.0176C336.577 13.653 337.396 13.4233 338.561 13.4233V11.4233C337.154 11.4233 335.914 11.6979 334.925 12.3418L336.017 14.0176ZM338.561 13.4233C339.54 13.4233 340.349 13.619 341.019 13.9766L341.961 12.2123C340.955 11.6751 339.811 11.4233 338.561 11.4233V13.4233ZM341.025 13.9797C341.663 14.3149 342.171 14.8328 342.547 15.5792L344.333 14.6793C343.786 13.5934 342.994 12.7547 341.955 12.2092L341.025 13.9797ZM342.551 15.5876C342.925 16.3119 343.143 17.2988 343.143 18.6023H345.143C345.143 17.0932 344.893 15.7648 344.329 14.671L342.551 15.5876ZM343.143 18.6023V29H345.143V18.6023H343.143ZM344.143 28H341.629V30H344.143V28ZM342.629 29V18.7727H340.629V29H342.629ZM342.629 18.7727C342.629 17.3027 342.244 16.0193 341.342 15.0691L339.892 16.4466C340.338 16.9168 340.629 17.6433 340.629 18.7727H342.629ZM341.349 15.0765C340.453 14.114 339.237 13.6818 337.836 13.6818V15.6818C338.808 15.6818 339.445 15.967 339.885 16.4391L341.349 15.0765ZM337.836 13.6818C336.867 13.6818 335.964 13.8877 335.15 14.3212L336.09 16.0865C336.583 15.8239 337.157 15.6818 337.836 15.6818V13.6818ZM335.146 14.3234C334.326 14.7651 333.68 15.4115 333.215 16.2361L334.957 17.2184C335.245 16.7079 335.622 16.3386 336.094 16.0843L335.146 14.3234ZM333.211 16.2432C332.742 17.0913 332.532 18.0765 332.532 19.1562H334.532C334.532 18.3326 334.692 17.6984 334.961 17.2113L333.211 16.2432ZM351.502 28.2862L350.966 29.1306L350.968 29.1321L351.502 28.2862ZM348.902 25.3352L348.004 25.7744L348.006 25.7784L348.902 25.3352ZM348.902 16.4396L348.005 15.9984L348.003 16.0025L348.902 16.4396ZM351.502 13.478L350.968 12.6321L350.966 12.6337L351.502 13.478ZM359.268 13.478L358.732 14.3223L358.735 14.3239L359.268 13.478ZM361.868 16.4396L360.968 16.8768L360.97 16.8808L361.868 16.4396ZM361.868 25.3352L360.971 24.892L360.969 24.8961L361.868 25.3352ZM359.268 28.2862L358.735 27.4403L358.732 27.4419L359.268 28.2862ZM358.16 26.2195L357.538 25.4363L357.538 25.4363L358.16 26.2195ZM359.769 23.9503L360.706 24.2983L360.706 24.2983L359.769 23.9503ZM359.769 17.8459L360.707 17.5002L360.707 17.5002L359.769 17.8459ZM358.16 15.5554L358.787 14.776L358.787 14.776L358.16 15.5554ZM352.62 15.5554L351.994 14.776L351.994 14.776L352.62 15.5554ZM351.012 17.8459L350.073 17.5002L350.073 17.5002L351.012 17.8459ZM351.012 23.9503L350.074 24.2983L350.074 24.2983L351.012 23.9503ZM352.62 26.2195L353.242 25.4363L353.242 25.4363L352.62 26.2195ZM355.39 28.3409C354.078 28.3409 352.972 28.031 352.035 27.4403L350.968 29.1321C352.262 29.9477 353.748 30.3409 355.39 30.3409V28.3409ZM352.038 27.4419C351.096 26.8443 350.349 26.0048 349.799 24.892L348.006 25.7784C348.706 27.1941 349.692 28.3219 350.966 29.1306L352.038 27.4419ZM349.801 24.8961C349.262 23.7934 348.975 22.4718 348.975 20.9034H346.975C346.975 22.7157 347.307 24.3486 348.004 25.7743L349.801 24.8961ZM348.975 20.9034C348.975 19.3196 349.262 17.9867 349.802 16.8768L348.003 16.0025C347.307 17.4352 346.975 19.0782 346.975 20.9034H348.975ZM349.8 16.8808C350.35 15.761 351.097 14.919 352.038 14.3223L350.966 12.6337C349.69 13.4432 348.704 14.5757 348.005 15.9984L349.8 16.8808ZM352.035 14.3239C352.972 13.7332 354.078 13.4233 355.39 13.4233V11.4233C353.748 11.4233 352.262 11.8165 350.968 12.6321L352.035 14.3239ZM355.39 13.4233C356.702 13.4233 357.804 13.7333 358.732 14.3223L359.804 12.6337C358.516 11.8164 357.033 11.4233 355.39 11.4233V13.4233ZM358.735 14.3239C359.681 14.9203 360.426 15.7605 360.968 16.8768L362.767 16.0025C362.074 14.5761 361.086 13.4419 359.801 12.6321L358.735 14.3239ZM360.97 16.8808C361.515 17.9897 361.805 19.3211 361.805 20.9034H363.805C363.805 19.0766 363.47 17.4322 362.765 15.9984L360.97 16.8808ZM361.805 20.9034C361.805 22.4702 361.516 23.7904 360.971 24.892L362.764 25.7784C363.469 24.3517 363.805 22.7173 363.805 20.9034H361.805ZM360.969 24.8961C360.427 26.0052 359.682 26.843 358.735 27.4403L359.801 29.1321C361.084 28.3232 362.072 27.1937 362.766 25.7743L360.969 24.8961ZM358.732 27.4419C357.804 28.0309 356.702 28.3409 355.39 28.3409V30.3409C357.033 30.3409 358.516 29.9478 359.804 29.1306L358.732 27.4419ZM355.39 28.0824C356.689 28.0824 357.845 27.7463 358.782 27.0026L357.538 25.4363C357.026 25.8431 356.336 26.0824 355.39 26.0824V28.0824ZM358.782 27.0026C359.661 26.3046 360.3 25.3925 360.706 24.2983L358.831 23.6023C358.542 24.383 358.108 24.9837 357.538 25.4363L358.782 27.0026ZM360.706 24.2983C361.099 23.2394 361.291 22.1048 361.291 20.9034H359.291C359.291 21.8895 359.134 22.7861 358.831 23.6023L360.706 24.2983ZM361.291 20.9034C361.291 19.7019 361.099 18.5647 360.707 17.5002L358.83 18.1916C359.134 19.0163 359.291 19.9174 359.291 20.9034H361.291ZM360.707 17.5002C360.302 16.4 359.664 15.4814 358.787 14.776L357.534 16.3348C358.105 16.7942 358.54 17.4025 358.83 18.1916L360.707 17.5002ZM358.787 14.776C357.85 14.023 356.691 13.6818 355.39 13.6818V15.6818C356.333 15.6818 357.021 15.9231 357.534 16.3348L358.787 14.776ZM355.39 13.6818C354.089 13.6818 352.931 14.023 351.994 14.776L353.247 16.3348C353.759 15.9231 354.447 15.6818 355.39 15.6818V13.6818ZM351.994 14.776C351.116 15.4814 350.479 16.4 350.073 17.5002L351.95 18.1916C352.241 17.4025 352.676 16.7942 353.247 16.3348L351.994 14.776ZM350.073 17.5002C349.681 18.5647 349.49 19.7019 349.49 20.9034H351.49C351.49 19.9174 351.646 19.0163 351.95 18.1916L350.073 17.5002ZM349.49 20.9034C349.49 22.1048 349.681 23.2394 350.074 24.2983L351.949 23.6023C351.646 22.7861 351.49 21.8895 351.49 20.9034H349.49ZM350.074 24.2983C350.48 25.3925 351.12 26.3046 351.999 27.0026L353.242 25.4363C352.672 24.9837 352.239 24.383 351.949 23.6023L350.074 24.2983ZM351.999 27.0026C352.935 27.7463 354.092 28.0824 355.39 28.0824V26.0824C354.444 26.0824 353.755 25.8431 353.242 25.4363L351.999 27.0026ZM369.402 28.2862L368.866 29.1306L368.869 29.1321L369.402 28.2862ZM366.803 25.3352L365.904 25.7744L365.906 25.7784L366.803 25.3352ZM366.803 16.4396L365.905 15.9984L365.903 16.0025L366.803 16.4396ZM369.402 13.478L368.869 12.6321L368.866 12.6337L369.402 13.478ZM377.169 13.478L376.633 14.3223L376.635 14.3239L377.169 13.478ZM379.768 16.4396L378.869 16.8768L378.871 16.8808L379.768 16.4396ZM379.768 25.3352L378.871 24.892L378.87 24.8961L379.768 25.3352ZM377.169 28.2862L376.635 27.4403L376.633 27.4419L377.169 28.2862ZM376.061 26.2195L375.439 25.4363L375.439 25.4363L376.061 26.2195ZM377.669 23.9503L378.607 24.2983L378.607 24.2983L377.669 23.9503ZM377.669 17.8459L378.608 17.5002L378.608 17.5002L377.669 17.8459ZM376.061 15.5554L376.687 14.776L376.687 14.776L376.061 15.5554ZM370.521 15.5554L369.894 14.776L369.894 14.776L370.521 15.5554ZM368.912 17.8459L367.974 17.5002L367.974 17.5002L368.912 17.8459ZM368.912 23.9503L367.975 24.2983L367.975 24.2983L368.912 23.9503ZM370.521 26.2195L371.143 25.4363L371.143 25.4363L370.521 26.2195ZM373.291 28.3409C371.979 28.3409 370.872 28.031 369.936 27.4403L368.869 29.1321C370.162 29.9477 371.648 30.3409 373.291 30.3409V28.3409ZM369.938 27.4419C368.996 26.8443 368.249 26.0048 367.699 24.892L365.906 25.7784C366.606 27.1941 367.592 28.3219 368.866 29.1306L369.938 27.4419ZM367.701 24.8961C367.162 23.7934 366.876 22.4718 366.876 20.9034H364.876C364.876 22.7157 365.207 24.3486 365.904 25.7743L367.701 24.8961ZM366.876 20.9034C366.876 19.3196 367.163 17.9867 367.702 16.8768L365.903 16.0025C365.207 17.4352 364.876 19.0782 364.876 20.9034H366.876ZM367.7 16.8808C368.251 15.761 368.998 14.919 369.938 14.3223L368.866 12.6337C367.591 13.4432 366.605 14.5757 365.905 15.9984L367.7 16.8808ZM369.936 14.3239C370.872 13.7332 371.979 13.4233 373.291 13.4233V11.4233C371.648 11.4233 370.162 11.8165 368.869 12.6321L369.936 14.3239ZM373.291 13.4233C374.603 13.4233 375.704 13.7333 376.633 14.3223L377.704 12.6337C376.417 11.8164 374.933 11.4233 373.291 11.4233V13.4233ZM376.635 14.3239C377.581 14.9203 378.326 15.7605 378.869 16.8768L380.667 16.0025C379.974 14.5761 378.986 13.4419 377.702 12.6321L376.635 14.3239ZM378.871 16.8808C379.416 17.9897 379.705 19.3211 379.705 20.9034H381.705C381.705 19.0766 381.37 17.4322 380.665 15.9984L378.871 16.8808ZM379.705 20.9034C379.705 22.4702 379.416 23.7904 378.872 24.892L380.664 25.7784C381.37 24.3517 381.705 22.7173 381.705 20.9034H379.705ZM378.87 24.8961C378.327 26.0052 377.582 26.843 376.635 27.4403L377.702 29.1321C378.985 28.3232 379.973 27.1937 380.666 25.7743L378.87 24.8961ZM376.633 27.4419C375.704 28.0309 374.603 28.3409 373.291 28.3409V30.3409C374.933 30.3409 376.417 29.9478 377.704 29.1306L376.633 27.4419ZM373.291 28.0824C374.589 28.0824 375.746 27.7463 376.682 27.0026L375.439 25.4363C374.926 25.8431 374.237 26.0824 373.291 26.0824V28.0824ZM376.682 27.0026C377.561 26.3046 378.201 25.3925 378.607 24.2983L376.732 23.6023C376.442 24.383 376.009 24.9837 375.439 25.4363L376.682 27.0026ZM378.607 24.2983C379 23.2394 379.191 22.1048 379.191 20.9034H377.191C377.191 21.8895 377.035 22.7861 376.732 23.6023L378.607 24.2983ZM379.191 20.9034C379.191 19.7019 379 18.5647 378.608 17.5002L376.731 18.1916C377.035 19.0163 377.191 19.9174 377.191 20.9034H379.191ZM378.608 17.5002C378.202 16.4 377.565 15.4814 376.687 14.776L375.434 16.3348C376.005 16.7942 376.44 17.4025 376.731 18.1916L378.608 17.5002ZM376.687 14.776C375.75 14.023 374.592 13.6818 373.291 13.6818V15.6818C374.234 15.6818 374.922 15.9231 375.434 16.3348L376.687 14.776ZM373.291 13.6818C371.99 13.6818 370.831 14.023 369.894 14.776L371.147 16.3348C371.659 15.9231 372.347 15.6818 373.291 15.6818V13.6818ZM369.894 14.776C369.017 15.4814 368.379 16.4 367.974 17.5002L369.85 18.1916C370.141 17.4025 370.576 16.7942 371.147 16.3348L369.894 14.776ZM367.974 17.5002C367.582 18.5647 367.39 19.7019 367.39 20.9034H369.39C369.39 19.9174 369.547 19.0163 369.85 18.1916L367.974 17.5002ZM367.39 20.9034C367.39 22.1048 367.582 23.2394 367.975 24.2983L369.85 23.6023C369.547 22.7861 369.39 21.8895 369.39 20.9034H367.39ZM367.975 24.2983C368.381 25.3925 369.02 26.3046 369.899 27.0026L371.143 25.4363C370.573 24.9837 370.139 24.383 369.85 23.6023L367.975 24.2983ZM369.899 27.0026C370.836 27.7463 371.992 28.0824 373.291 28.0824V26.0824C372.345 26.0824 371.655 25.8431 371.143 25.4363L369.899 27.0026ZM387.867 7.18182L388.867 7.1954L388.881 6.18182H387.867V7.18182ZM387.654 22.8636V23.8636H388.641L388.654 22.8772L387.654 22.8636ZM385.183 22.8636L384.183 22.8772L384.196 23.8636H385.183V22.8636ZM384.969 7.18182V6.18182H383.956L383.97 7.1954L384.969 7.18182ZM385.065 28.6058L385.772 27.8987L385.772 27.8987L385.065 28.6058ZM387.771 25.8999L388.478 25.1928L388.478 25.1928L387.771 25.8999ZM388.07 28.2116L387.216 27.691L387.211 27.6987L387.207 27.7065L388.07 28.2116ZM387.377 28.9148L387.892 29.7723L387.898 29.7686L387.377 28.9148ZM386.867 7.16823L386.654 22.8501L388.654 22.8772L388.867 7.1954L386.867 7.16823ZM387.654 21.8636H385.183V23.8636H387.654V21.8636ZM386.182 22.8501L385.969 7.16823L383.97 7.1954L384.183 22.8772L386.182 22.8501ZM384.969 8.18182H387.867V6.18182H384.969V8.18182ZM386.418 28.1705C386.162 28.1705 385.964 28.0903 385.772 27.8987L384.358 29.3129C384.919 29.8742 385.624 30.1705 386.418 30.1705V28.1705ZM385.772 27.8987C385.581 27.7071 385.501 27.5094 385.501 27.2528H383.501C383.501 28.0474 383.797 28.7517 384.358 29.3129L385.772 27.8987ZM385.501 27.2528C385.501 26.9963 385.581 26.7986 385.772 26.607L384.358 25.1928C383.797 25.754 383.501 26.4582 383.501 27.2528H385.501ZM385.772 26.607C385.964 26.4154 386.162 26.3352 386.418 26.3352V24.3352C385.624 24.3352 384.919 24.6315 384.358 25.1928L385.772 26.607ZM386.418 26.3352C386.675 26.3352 386.873 26.4154 387.064 26.607L388.478 25.1928C387.917 24.6315 387.213 24.3352 386.418 24.3352V26.3352ZM387.064 26.607C387.256 26.7986 387.336 26.9963 387.336 27.2528H389.336C389.336 26.4582 389.04 25.754 388.478 25.1928L387.064 26.607ZM387.336 27.2528C387.336 27.4211 387.296 27.56 387.216 27.691L388.923 28.7323C389.199 28.2809 389.336 27.7806 389.336 27.2528H387.336ZM387.207 27.7065C387.121 27.8533 387.008 27.9686 386.857 28.061L387.898 29.7686C388.329 29.5059 388.678 29.1524 388.933 28.7168L387.207 27.7065ZM386.863 28.0573C386.745 28.1278 386.606 28.1705 386.418 28.1705V30.1705C386.941 30.1705 387.441 30.0427 387.892 29.7723L386.863 28.0573Z" fill="#E4FC52"/>
</g>
<g id="Yahoo!_2">
<path d="M282.511 60.4545H284.528L288.562 67.2443H288.733L292.767 60.4545H294.784L289.528 69.0057V75H287.767V69.0057L282.511 60.4545ZM298.619 75.2557C297.928 75.2557 297.301 75.1255 296.737 74.8651C296.174 74.5999 295.726 74.2188 295.395 73.7216C295.063 73.2197 294.898 72.6136 294.898 71.9034C294.898 71.2784 295.021 70.7718 295.267 70.3835C295.513 69.9905 295.842 69.6828 296.254 69.4602C296.666 69.2377 297.121 69.072 297.618 68.9631C298.12 68.8494 298.624 68.7595 299.131 68.6932C299.794 68.608 300.331 68.544 300.743 68.5014C301.16 68.4541 301.463 68.3759 301.652 68.267C301.846 68.1581 301.943 67.9687 301.943 67.6989V67.642C301.943 66.9413 301.751 66.3968 301.368 66.0085C300.989 65.6203 300.414 65.4261 299.642 65.4261C298.842 65.4261 298.214 65.6013 297.76 65.9517C297.305 66.3021 296.986 66.6761 296.801 67.0739L295.21 66.5057C295.494 65.8428 295.873 65.3267 296.347 64.9574C296.825 64.5833 297.346 64.3229 297.909 64.1761C298.477 64.0246 299.036 63.9489 299.585 63.9489C299.936 63.9489 300.338 63.9915 300.793 64.0767C301.252 64.1572 301.695 64.3253 302.121 64.581C302.552 64.8366 302.909 65.2225 303.193 65.7386C303.477 66.2547 303.619 66.946 303.619 67.8125V75H301.943V73.5227H301.858C301.744 73.7595 301.555 74.0128 301.29 74.2827C301.025 74.5526 300.672 74.7822 300.232 74.9716C299.791 75.161 299.254 75.2557 298.619 75.2557ZM298.875 73.75C299.538 73.75 300.097 73.6198 300.551 73.3594C301.01 73.099 301.356 72.7628 301.588 72.3509C301.825 71.9389 301.943 71.5057 301.943 71.0511V69.517C301.872 69.6023 301.716 69.6804 301.474 69.7514C301.238 69.8177 300.963 69.8769 300.651 69.929C300.343 69.9763 300.042 70.0189 299.749 70.0568C299.46 70.09 299.225 70.1184 299.045 70.142C298.61 70.1989 298.203 70.2912 297.824 70.419C297.45 70.5421 297.147 70.7292 296.915 70.9801C296.688 71.2263 296.574 71.5625 296.574 71.9886C296.574 72.571 296.789 73.0114 297.22 73.3097C297.656 73.6032 298.207 73.75 298.875 73.75ZM308.355 68.4375V75H306.679V60.4545H308.355V65.7955H308.497C308.752 65.232 309.136 64.7846 309.647 64.4531C310.163 64.117 310.85 63.9489 311.707 63.9489C312.45 63.9489 313.101 64.098 313.66 64.3963C314.219 64.6899 314.652 65.142 314.96 65.7528C315.272 66.3589 315.429 67.1307 315.429 68.0682V75H313.752V68.1818C313.752 67.3153 313.528 66.6454 313.078 66.1719C312.633 65.6937 312.015 65.4545 311.224 65.4545C310.675 65.4545 310.182 65.5705 309.747 65.8026C309.316 66.0346 308.975 66.3731 308.724 66.8182C308.478 67.2633 308.355 67.803 308.355 68.4375ZM322.927 75.2273C321.942 75.2273 321.078 74.9929 320.335 74.5241C319.596 74.0554 319.018 73.3996 318.602 72.5568C318.19 71.714 317.984 70.7292 317.984 69.6023C317.984 68.4659 318.19 67.474 318.602 66.6264C319.018 65.7789 319.596 65.1207 320.335 64.652C321.078 64.1832 321.942 63.9489 322.927 63.9489C323.912 63.9489 324.773 64.1832 325.512 64.652C326.255 65.1207 326.833 65.7789 327.245 66.6264C327.662 67.474 327.87 68.4659 327.87 69.6023C327.87 70.7292 327.662 71.714 327.245 72.5568C326.833 73.3996 326.255 74.0554 325.512 74.5241C324.773 74.9929 323.912 75.2273 322.927 75.2273ZM322.927 73.7216C323.675 73.7216 324.29 73.5298 324.773 73.1463C325.256 72.7628 325.614 72.2585 325.846 71.6335C326.078 71.0085 326.194 70.3314 326.194 69.6023C326.194 68.8731 326.078 68.1937 325.846 67.5639C325.614 66.9342 325.256 66.4252 324.773 66.0369C324.29 65.6487 323.675 65.4545 322.927 65.4545C322.179 65.4545 321.563 65.6487 321.08 66.0369C320.597 66.4252 320.24 66.9342 320.008 67.5639C319.776 68.1937 319.66 68.8731 319.66 69.6023C319.66 70.3314 319.776 71.0085 320.008 71.6335C320.24 72.2585 320.597 72.7628 321.08 73.1463C321.563 73.5298 322.179 73.7216 322.927 73.7216ZM334.86 75.2273C333.876 75.2273 333.011 74.9929 332.268 74.5241C331.529 74.0554 330.952 73.3996 330.535 72.5568C330.123 71.714 329.917 70.7292 329.917 69.6023C329.917 68.4659 330.123 67.474 330.535 66.6264C330.952 65.7789 331.529 65.1207 332.268 64.652C333.011 64.1832 333.876 63.9489 334.86 63.9489C335.845 63.9489 336.707 64.1832 337.446 64.652C338.189 65.1207 338.767 65.7789 339.179 66.6264C339.595 67.474 339.804 68.4659 339.804 69.6023C339.804 70.7292 339.595 71.714 339.179 72.5568C338.767 73.3996 338.189 74.0554 337.446 74.5241C336.707 74.9929 335.845 75.2273 334.86 75.2273ZM334.86 73.7216C335.609 73.7216 336.224 73.5298 336.707 73.1463C337.19 72.7628 337.547 72.2585 337.779 71.6335C338.011 71.0085 338.127 70.3314 338.127 69.6023C338.127 68.8731 338.011 68.1937 337.779 67.5639C337.547 66.9342 337.19 66.4252 336.707 66.0369C336.224 65.6487 335.609 65.4545 334.86 65.4545C334.112 65.4545 333.497 65.6487 333.014 66.0369C332.531 66.4252 332.173 66.9342 331.941 67.5639C331.709 68.1937 331.593 68.8731 331.593 69.6023C331.593 70.3314 331.709 71.0085 331.941 71.6335C332.173 72.2585 332.531 72.7628 333.014 73.1463C333.497 73.5298 334.112 73.7216 334.86 73.7216ZM344.578 60.4545L344.436 70.9091H342.788L342.646 60.4545H344.578ZM343.612 75.1136C343.262 75.1136 342.961 74.9882 342.71 74.7372C342.459 74.4863 342.334 74.1856 342.334 73.8352C342.334 73.4848 342.459 73.1842 342.71 72.9332C342.961 72.6823 343.262 72.5568 343.612 72.5568C343.963 72.5568 344.263 72.6823 344.514 72.9332C344.765 73.1842 344.891 73.4848 344.891 73.8352C344.891 74.0672 344.831 74.2803 344.713 74.4744C344.599 74.6686 344.446 74.8248 344.251 74.9432C344.062 75.0568 343.849 75.1136 343.612 75.1136Z" fill="#E4FC52"/>
<path d="M282.511 60.4545V59.4545H280.723L281.659 60.9782L282.511 60.4545ZM284.528 60.4545L285.388 59.9438L285.097 59.4545H284.528V60.4545ZM288.562 67.2443L287.703 67.7551L287.993 68.2443H288.562V67.2443ZM288.733 67.2443V68.2443H289.302L289.593 67.7551L288.733 67.2443ZM292.767 60.4545V59.4545H292.198L291.907 59.9438L292.767 60.4545ZM294.784 60.4545L295.636 60.9782L296.572 59.4545H294.784V60.4545ZM289.528 69.0057L288.676 68.4821L288.528 68.7229V69.0057H289.528ZM289.528 75V76H290.528V75H289.528ZM287.767 75H286.767V76H287.767V75ZM287.767 69.0057H288.767V68.7229L288.619 68.4821L287.767 69.0057ZM282.511 61.4545H284.528V59.4545H282.511V61.4545ZM283.669 60.9653L287.703 67.7551L289.422 66.7335L285.388 59.9438L283.669 60.9653ZM288.562 68.2443H288.733V66.2443H288.562V68.2443ZM289.593 67.7551L293.627 60.9653L291.907 59.9438L287.873 66.7335L289.593 67.7551ZM292.767 61.4545H294.784V59.4545H292.767V61.4545ZM293.932 59.9309L288.676 68.4821L290.38 69.5293L295.636 60.9782L293.932 59.9309ZM288.528 69.0057V75H290.528V69.0057H288.528ZM289.528 74H287.767V76H289.528V74ZM288.767 75V69.0057H286.767V75H288.767ZM288.619 68.4821L283.363 59.9309L281.659 60.9782L286.915 69.5293L288.619 68.4821ZM296.737 74.8651L296.311 75.7699L296.318 75.7728L296.737 74.8651ZM295.395 73.7216L294.56 74.2727L294.563 74.2763L295.395 73.7216ZM295.267 70.3835L296.112 70.9191L296.114 70.9144L295.267 70.3835ZM297.618 68.9631L297.832 69.9399L297.839 69.9384L297.618 68.9631ZM299.131 68.6932L299.003 67.7013L299.001 67.7016L299.131 68.6932ZM300.743 68.5014L300.846 69.4962L300.856 69.495L300.743 68.5014ZM301.652 68.267L301.163 67.3949L301.154 67.4001L301.652 68.267ZM301.368 66.0085L300.652 66.7069L300.656 66.7113L301.368 66.0085ZM297.76 65.9517L298.37 66.7437L298.37 66.7437L297.76 65.9517ZM296.801 67.0739L296.465 68.0156L297.324 68.3224L297.708 67.495L296.801 67.0739ZM295.21 66.5057L294.291 66.1118L293.872 67.0896L294.874 67.4474L295.21 66.5057ZM296.347 64.9574L296.962 65.7459L296.963 65.7451L296.347 64.9574ZM297.909 64.1761L298.161 65.1439L298.167 65.1424L297.909 64.1761ZM300.793 64.0767L300.608 65.0596L300.62 65.0617L300.793 64.0767ZM302.121 64.581L301.606 65.4385L301.61 65.4409L302.121 64.581ZM303.193 65.7386L302.317 66.2209L302.317 66.2209L303.193 65.7386ZM303.619 75V76H304.619V75H303.619ZM301.943 75H300.943V76H301.943V75ZM301.943 73.5227H302.943V72.5227H301.943V73.5227ZM301.858 73.5227V72.5227H301.229L300.956 73.09L301.858 73.5227ZM301.29 74.2827L302.003 74.9835L302.003 74.9835L301.29 74.2827ZM300.232 74.9716L299.836 74.053L299.836 74.053L300.232 74.9716ZM300.551 73.3594L300.058 72.4895L300.054 72.4917L300.551 73.3594ZM301.588 72.3509L300.721 71.8525L300.717 71.8601L301.588 72.3509ZM301.943 69.517H302.943V66.755L301.175 68.8769L301.943 69.517ZM301.474 69.7514L301.744 70.7145L301.757 70.7108L301.474 69.7514ZM300.651 69.929L300.803 70.9174L300.815 70.9154L300.651 69.929ZM299.749 70.0568L299.863 71.0504L299.877 71.0486L299.749 70.0568ZM299.045 70.142L299.175 71.1336L299.176 71.1335L299.045 70.142ZM297.824 70.419L298.136 71.3689L298.144 71.3665L297.824 70.419ZM296.915 70.9801L296.181 70.3013L296.18 70.3018L296.915 70.9801ZM297.22 73.3097L296.651 74.1319L296.661 74.1389L297.22 73.3097ZM298.619 74.2557C298.056 74.2557 297.574 74.1504 297.157 73.9573L296.318 75.7728C297.027 76.1006 297.8 76.2557 298.619 76.2557V74.2557ZM297.163 73.9602C296.757 73.7692 296.453 73.506 296.227 73.1669L294.563 74.2763C295 74.9315 295.59 75.4306 296.311 75.7699L297.163 73.9602ZM296.229 73.1705C296.024 72.8599 295.898 72.4538 295.898 71.9034H293.898C293.898 72.7735 294.103 73.5795 294.56 74.2727L296.229 73.1705ZM295.898 71.9034C295.898 71.402 295.997 71.0993 296.112 70.9191L294.423 69.848C294.044 70.4443 293.898 71.1548 293.898 71.9034H295.898ZM296.114 70.9144C296.268 70.6694 296.468 70.4812 296.73 70.34L295.779 68.5804C295.216 68.8843 294.759 69.3116 294.42 69.8526L296.114 70.9144ZM296.73 70.34C297.053 70.1656 297.418 70.0306 297.832 69.9399L297.404 67.9862C296.823 68.1134 296.28 68.3098 295.779 68.5804L296.73 70.34ZM297.839 69.9384C298.311 69.8315 298.785 69.747 299.26 69.6847L299.001 67.7016C298.464 67.772 297.929 67.8674 297.397 67.9878L297.839 69.9384ZM299.258 69.685C299.917 69.6003 300.445 69.5375 300.846 69.4961L300.64 67.5067C300.216 67.5505 299.67 67.6156 299.003 67.7013L299.258 69.685ZM300.856 69.495C301.306 69.4438 301.778 69.3482 302.15 69.134L301.154 67.4001C301.162 67.395 301.132 67.4136 301.033 67.439C300.939 67.4633 300.807 67.4877 300.63 67.5078L300.856 69.495ZM302.141 69.1392C302.723 68.8129 302.943 68.2395 302.943 67.6989H300.943C300.943 67.7166 300.94 67.6664 300.98 67.5872C301.026 67.4986 301.097 67.432 301.163 67.3949L302.141 69.1392ZM302.943 67.6989V67.642H300.943V67.6989H302.943ZM302.943 67.642C302.943 66.7563 302.696 65.9302 302.079 65.3058L300.656 66.7113C300.807 66.8633 300.943 67.1263 300.943 67.642H302.943ZM302.084 65.3102C301.449 64.6597 300.568 64.4261 299.642 64.4261V66.4261C300.26 66.4261 300.529 66.5808 300.652 66.7068L302.084 65.3102ZM299.642 64.4261C298.706 64.4261 297.836 64.6303 297.149 65.1597L298.37 66.7437C298.593 66.5724 298.977 66.4261 299.642 66.4261V64.4261ZM297.149 65.1597C296.606 65.5789 296.164 66.0714 295.894 66.6528L297.708 67.495C297.808 67.2808 298.005 67.0253 298.37 66.7437L297.149 65.1597ZM297.137 66.1321L295.547 65.5639L294.874 67.4474L296.465 68.0156L297.137 66.1321ZM296.129 66.8996C296.36 66.3607 296.645 65.9925 296.962 65.7459L295.732 64.1689C295.101 64.6609 294.628 65.3249 294.291 66.1118L296.129 66.8996ZM296.963 65.7451C297.338 65.4516 297.736 65.2547 298.161 65.1438L297.657 63.2084C296.956 63.3912 296.312 63.7151 295.73 64.1697L296.963 65.7451ZM298.167 65.1424C298.657 65.0117 299.129 64.9489 299.585 64.9489V62.9489C298.943 62.9489 298.298 63.0375 297.651 63.2099L298.167 65.1424ZM299.585 64.9489C299.858 64.9489 300.197 64.9824 300.608 65.0596L300.977 63.0938C300.48 63.0006 300.013 62.9489 299.585 62.9489V64.9489ZM300.62 65.0617C300.951 65.1196 301.278 65.2417 301.606 65.4385L302.635 63.7235C302.111 63.4089 301.553 63.1947 300.965 63.0917L300.62 65.0617ZM301.61 65.4409C301.863 65.5907 302.104 65.8333 302.317 66.2209L304.069 65.2564C303.714 64.6118 303.24 64.0826 302.631 63.721L301.61 65.4409ZM302.317 66.2209C302.491 66.5359 302.619 67.0409 302.619 67.8125H304.619C304.619 66.8512 304.464 65.9736 304.069 65.2564L302.317 66.2209ZM302.619 67.8125V75H304.619V67.8125H302.619ZM303.619 74H301.943V76H303.619V74ZM302.943 75V73.5227H300.943V75H302.943ZM301.943 72.5227H301.858V74.5227H301.943V72.5227ZM300.956 73.09C300.906 73.1944 300.795 73.3589 300.576 73.5818L302.003 74.9835C302.314 74.6667 302.582 74.3245 302.759 73.9555L300.956 73.09ZM300.576 73.5818C300.423 73.7381 300.188 73.9017 299.836 74.053L300.627 75.8902C301.156 75.6627 301.626 75.367 302.003 74.9835L300.576 73.5818ZM299.836 74.053C299.554 74.1743 299.16 74.2557 298.619 74.2557V76.2557C299.348 76.2557 300.028 76.1476 300.627 75.8902L299.836 74.053ZM298.875 74.75C299.667 74.75 300.407 74.5943 301.048 74.2271L300.054 72.4917C299.786 72.6453 299.409 72.75 298.875 72.75V74.75ZM301.044 74.2293C301.643 73.8899 302.128 73.4299 302.459 72.8416L300.717 71.8601C300.584 72.0957 300.378 72.308 300.058 72.4895L301.044 74.2293ZM302.455 72.8491C302.775 72.2927 302.943 71.6886 302.943 71.0511H300.943C300.943 71.3228 300.875 71.5851 300.721 71.8526L302.455 72.8491ZM302.943 71.0511V69.517H300.943V71.0511H302.943ZM301.175 68.8769C301.223 68.819 301.267 68.7843 301.29 68.7676C301.314 68.7505 301.328 68.7438 301.326 68.7451C301.324 68.7461 301.312 68.7516 301.288 68.7605C301.265 68.7692 301.233 68.7799 301.192 68.7921L301.757 70.7108C301.912 70.6652 302.071 70.6083 302.22 70.534C302.358 70.4648 302.551 70.3492 302.711 70.1572L301.175 68.8769ZM301.205 68.7885C301.011 68.8428 300.773 68.8948 300.486 68.9426L300.815 70.9154C301.153 70.859 301.464 70.7927 301.744 70.7144L301.205 68.7885ZM300.499 68.9406C300.198 68.9868 299.906 69.0283 299.621 69.065L299.877 71.0486C300.179 71.0096 300.487 70.9659 300.803 70.9173L300.499 68.9406ZM299.635 69.0633C299.343 69.0968 299.103 69.1259 298.915 69.1506L299.176 71.1335C299.348 71.1108 299.576 71.0831 299.863 71.0503L299.635 69.0633ZM298.916 69.1504C298.422 69.2149 297.95 69.3209 297.504 69.4715L298.144 71.3665C298.455 71.2615 298.798 71.1828 299.175 71.1336L298.916 69.1504ZM297.511 69.4692C297.001 69.6372 296.544 69.9078 296.181 70.3013L297.649 71.659C297.749 71.5506 297.899 71.4471 298.136 71.3689L297.511 69.4692ZM296.18 70.3018C295.74 70.779 295.574 71.382 295.574 71.9886H297.574C297.574 71.743 297.635 71.6737 297.65 71.6584L296.18 70.3018ZM295.574 71.9886C295.574 72.8565 295.917 73.6237 296.651 74.1319L297.789 72.4875C297.662 72.399 297.574 72.2855 297.574 71.9886H295.574ZM296.661 74.1389C297.302 74.5705 298.062 74.75 298.875 74.75V72.75C298.353 72.75 298.01 72.636 297.779 72.4804L296.661 74.1389ZM308.355 75V76H309.355V75H308.355ZM306.679 75H305.679V76H306.679V75ZM306.679 60.4545V59.4545H305.679V60.4545H306.679ZM308.355 60.4545H309.355V59.4545H308.355V60.4545ZM308.355 65.7955H307.355V66.7955H308.355V65.7955ZM308.497 65.7955V66.7955H309.141L309.407 66.2087L308.497 65.7955ZM309.647 64.4531L310.191 65.2923L310.193 65.291L309.647 64.4531ZM313.66 64.3963L313.189 65.2785L313.195 65.2815L313.66 64.3963ZM314.96 65.7528L314.067 66.2028L314.071 66.2111L314.96 65.7528ZM315.429 75V76H316.429V75H315.429ZM313.752 75H312.752V76H313.752V75ZM313.078 66.1719L312.346 66.8532L312.353 66.8606L313.078 66.1719ZM309.747 65.8026L309.277 64.9199L309.273 64.9221L309.747 65.8026ZM308.724 66.8182L307.853 66.327L307.849 66.3341L308.724 66.8182ZM307.355 68.4375V75H309.355V68.4375H307.355ZM308.355 74H306.679V76H308.355V74ZM307.679 75V60.4545H305.679V75H307.679ZM306.679 61.4545H308.355V59.4545H306.679V61.4545ZM307.355 60.4545V65.7955H309.355V60.4545H307.355ZM308.355 66.7955H308.497V64.7955H308.355V66.7955ZM309.407 66.2087C309.585 65.8165 309.843 65.518 310.191 65.2923L309.103 63.614C308.429 64.0511 307.92 64.6475 307.586 65.3822L309.407 66.2087ZM310.193 65.291C310.495 65.0945 310.971 64.9489 311.707 64.9489V62.9489C310.729 62.9489 309.832 63.1394 309.102 63.6152L310.193 65.291ZM311.707 64.9489C312.315 64.9489 312.799 65.07 313.189 65.2785L314.131 63.5142C313.404 63.1261 312.586 62.9489 311.707 62.9489V64.9489ZM313.195 65.2815C313.554 65.47 313.845 65.7617 314.067 66.2028L315.853 65.3029C315.46 64.5223 314.884 63.9098 314.125 63.5111L313.195 65.2815ZM314.071 66.2111C314.288 66.6325 314.429 67.2335 314.429 68.0682H316.429C316.429 67.0279 316.256 66.0853 315.849 65.2946L314.071 66.2111ZM314.429 68.0682V75H316.429V68.0682H314.429ZM315.429 74H313.752V76H315.429V74ZM314.752 75V68.1818H312.752V75H314.752ZM314.752 68.1818C314.752 67.145 314.481 66.1966 313.803 65.4831L312.353 66.8606C312.575 67.0941 312.752 67.4857 312.752 68.1818H314.752ZM313.81 65.4906C313.136 64.7671 312.229 64.4545 311.224 64.4545V66.4545C311.8 66.4545 312.129 66.6202 312.346 66.8532L313.81 65.4906ZM311.224 64.4545C310.53 64.4545 309.873 64.6025 309.277 64.9199L310.217 66.6852C310.492 66.5386 310.82 66.4545 311.224 66.4545V64.4545ZM309.273 64.9221C308.668 65.2478 308.193 65.7249 307.853 66.327L309.595 67.3093C309.758 67.0213 309.964 66.8213 310.221 66.683L309.273 64.9221ZM307.849 66.3341C307.503 66.9597 307.355 67.675 307.355 68.4375H309.355C309.355 67.9311 309.453 67.5668 309.599 67.3022L307.849 66.3341ZM320.335 74.5241L319.799 75.3685L319.801 75.37L320.335 74.5241ZM318.602 72.5568L317.703 72.9959L317.705 73L318.602 72.5568ZM318.602 66.6264L317.704 66.1852L317.702 66.1893L318.602 66.6264ZM320.335 64.652L319.801 63.8061L319.799 63.8077L320.335 64.652ZM325.512 64.652L324.976 65.4963L324.979 65.4979L325.512 64.652ZM327.245 66.6264L326.346 67.0636L326.348 67.0676L327.245 66.6264ZM327.245 72.5568L326.349 72.1136L326.347 72.1177L327.245 72.5568ZM325.512 74.5241L324.979 73.6783L324.976 73.6798L325.512 74.5241ZM324.773 73.1463L324.152 72.3632L324.152 72.3632L324.773 73.1463ZM325.846 71.6335L326.783 71.9815L326.783 71.9815L325.846 71.6335ZM325.846 67.5639L326.784 67.2182L326.784 67.2182L325.846 67.5639ZM324.773 66.0369L325.4 65.2576L325.4 65.2576L324.773 66.0369ZM321.08 66.0369L320.454 65.2576L320.454 65.2576L321.08 66.0369ZM320.008 67.5639L319.069 67.2182L319.069 67.2182L320.008 67.5639ZM320.008 71.6335L319.07 71.9815L319.07 71.9815L320.008 71.6335ZM321.08 73.1463L321.702 72.3632L321.702 72.3632L321.08 73.1463ZM322.927 74.2273C322.107 74.2273 321.433 74.0345 320.868 73.6783L319.801 75.37C320.723 75.9513 321.777 76.2273 322.927 76.2273V74.2273ZM320.87 73.6798C320.298 73.3166 319.84 72.805 319.498 72.1136L317.705 73C318.197 73.9943 318.894 74.7942 319.799 75.3685L320.87 73.6798ZM319.5 72.1177C319.167 71.4364 318.984 70.6072 318.984 69.6023H316.984C316.984 70.8511 317.212 71.9916 317.703 72.9959L319.5 72.1177ZM318.984 69.6023C318.984 68.5866 319.167 67.7497 319.501 67.0636L317.702 66.1893C317.212 67.1982 316.984 68.3452 316.984 69.6023H318.984ZM319.499 67.0676C319.841 66.3715 320.299 65.8587 320.87 65.4963L319.799 63.8077C318.892 64.3828 318.195 65.1862 317.704 66.1852L319.499 67.0676ZM320.868 65.4979C321.433 65.1416 322.107 64.9489 322.927 64.9489V62.9489C321.777 62.9489 320.723 63.2249 319.801 63.8061L320.868 65.4979ZM322.927 64.9489C323.747 64.9489 324.417 65.1417 324.976 65.4963L326.048 63.8077C325.129 63.2248 324.077 62.9489 322.927 62.9489V64.9489ZM324.979 65.4979C325.553 65.8599 326.009 66.3711 326.346 67.0636L328.144 66.1893C327.657 65.1867 326.958 64.3816 326.045 63.8061L324.979 65.4979ZM326.348 67.0676C326.684 67.7527 326.87 68.5882 326.87 69.6023H328.87C328.87 68.3436 328.639 67.1952 328.142 66.1852L326.348 67.0676ZM326.87 69.6023C326.87 70.6056 326.685 71.4334 326.349 72.1136L328.141 73C328.638 71.9947 328.87 70.8527 328.87 69.6023H326.87ZM326.347 72.1177C326.01 72.8054 325.554 73.3153 324.979 73.6783L326.045 75.37C326.957 74.7955 327.656 73.9939 328.143 72.9959L326.347 72.1177ZM324.976 73.6798C324.417 74.0345 323.747 74.2273 322.927 74.2273V76.2273C324.077 76.2273 325.129 75.9513 326.048 75.3685L324.976 73.6798ZM322.927 74.7216C323.851 74.7216 324.7 74.4814 325.395 73.9294L324.152 72.3632C323.881 72.5782 323.499 72.7216 322.927 72.7216V74.7216ZM325.395 73.9294C326.033 73.4232 326.493 72.7633 326.783 71.9815L324.908 71.2855C324.735 71.7538 324.48 72.1024 324.152 72.3632L325.395 73.9294ZM326.783 71.9815C327.06 71.2352 327.194 70.4391 327.194 69.6023H325.194C325.194 70.2238 325.095 70.7819 324.908 71.2855L326.783 71.9815ZM327.194 69.6023C327.194 68.7654 327.06 67.9678 326.784 67.2182L324.908 67.9096C325.095 68.4195 325.194 68.9809 325.194 69.6023H327.194ZM326.784 67.2182C326.495 66.433 326.036 65.7688 325.4 65.2576L324.147 66.8163C324.477 67.0816 324.733 67.4354 324.908 67.9096L326.784 67.2182ZM325.4 65.2576C324.705 64.6986 323.854 64.4545 322.927 64.4545V66.4545C323.496 66.4545 323.876 66.5987 324.147 66.8163L325.4 65.2576ZM322.927 64.4545C322 64.4545 321.149 64.6986 320.454 65.2576L321.707 66.8163C321.977 66.5987 322.358 66.4545 322.927 66.4545V64.4545ZM320.454 65.2576C319.818 65.7688 319.359 66.433 319.069 67.2182L320.946 67.9096C321.121 67.4354 321.377 67.0816 321.707 66.8163L320.454 65.2576ZM319.069 67.2182C318.793 67.9678 318.66 68.7654 318.66 69.6023H320.66C320.66 68.9809 320.758 68.4195 320.946 67.9096L319.069 67.2182ZM318.66 69.6023C318.66 70.4391 318.793 71.2352 319.07 71.9815L320.945 71.2855C320.758 70.7819 320.66 70.2238 320.66 69.6023H318.66ZM319.07 71.9815C319.361 72.7633 319.821 73.4232 320.458 73.9294L321.702 72.3632C321.374 72.1024 321.119 71.7538 320.945 71.2855L319.07 71.9815ZM320.458 73.9294C321.154 74.4814 322.003 74.7216 322.927 74.7216V72.7216C322.355 72.7216 321.973 72.5782 321.702 72.3632L320.458 73.9294ZM332.268 74.5241L331.732 75.3685L331.735 75.37L332.268 74.5241ZM330.535 72.5568L329.637 72.9959L329.639 73L330.535 72.5568ZM330.535 66.6264L329.638 66.1852L329.636 66.1893L330.535 66.6264ZM332.268 64.652L331.735 63.8061L331.732 63.8077L332.268 64.652ZM337.446 64.652L336.91 65.4963L336.912 65.4979L337.446 64.652ZM339.179 66.6264L338.279 67.0636L338.281 67.0676L339.179 66.6264ZM339.179 72.5568L338.282 72.1136L338.28 72.1177L339.179 72.5568ZM337.446 74.5241L336.912 73.6783L336.91 73.6798L337.446 74.5241ZM336.707 73.1463L336.085 72.3632L336.085 72.3632L336.707 73.1463ZM337.779 71.6335L338.717 71.9815L338.717 71.9815L337.779 71.6335ZM337.779 67.5639L338.718 67.2182L338.718 67.2182L337.779 67.5639ZM336.707 66.0369L337.334 65.2576L337.334 65.2576L336.707 66.0369ZM333.014 66.0369L332.387 65.2576L332.387 65.2576L333.014 66.0369ZM331.941 67.5639L331.003 67.2182L331.003 67.2182L331.941 67.5639ZM331.941 71.6335L331.004 71.9815L331.004 71.9815L331.941 71.6335ZM333.014 73.1463L333.636 72.3632L333.636 72.3632L333.014 73.1463ZM334.86 74.2273C334.041 74.2273 333.366 74.0345 332.801 73.6783L331.735 75.37C332.657 75.9513 333.71 76.2273 334.86 76.2273V74.2273ZM332.804 73.6798C332.232 73.3166 331.773 72.805 331.432 72.1136L329.639 73C330.13 73.9943 330.827 74.7942 331.732 75.3685L332.804 73.6798ZM331.434 72.1177C331.101 71.4364 330.917 70.6072 330.917 69.6023H328.917C328.917 70.8511 329.146 71.9916 329.637 72.9959L331.434 72.1177ZM330.917 69.6023C330.917 68.5866 331.101 67.7497 331.435 67.0636L329.636 66.1893C329.145 67.1982 328.917 68.3452 328.917 69.6023H330.917ZM331.433 67.0676C331.775 66.3715 332.233 65.8587 332.804 65.4963L331.732 63.8077C330.826 64.3828 330.129 65.1862 329.638 66.1852L331.433 67.0676ZM332.801 65.4979C333.366 65.1416 334.041 64.9489 334.86 64.9489V62.9489C333.71 62.9489 332.657 63.2249 331.735 63.8061L332.801 65.4979ZM334.86 64.9489C335.68 64.9489 336.351 65.1417 336.91 65.4963L337.981 63.8077C337.063 63.2248 336.01 62.9489 334.86 62.9489V64.9489ZM336.912 65.4979C337.486 65.8599 337.943 66.3711 338.279 67.0636L340.078 66.1893C339.591 65.1867 338.892 64.3816 337.979 63.8061L336.912 65.4979ZM338.281 67.0676C338.618 67.7527 338.804 68.5882 338.804 69.6023H340.804C340.804 68.3436 340.573 67.1952 340.076 66.1852L338.281 67.0676ZM338.804 69.6023C338.804 70.6056 338.619 71.4334 338.282 72.1136L340.075 73C340.572 71.9947 340.804 70.8527 340.804 69.6023H338.804ZM338.28 72.1177C337.944 72.8054 337.488 73.3153 336.912 73.6783L337.979 75.37C338.89 74.7955 339.589 73.9939 340.077 72.9959L338.28 72.1177ZM336.91 73.6798C336.351 74.0345 335.68 74.2273 334.86 74.2273V76.2273C336.01 76.2273 337.063 75.9513 337.981 75.3685L336.91 73.6798ZM334.86 74.7216C335.785 74.7216 336.634 74.4814 337.329 73.9294L336.085 72.3632C335.814 72.5782 335.432 72.7216 334.86 72.7216V74.7216ZM337.329 73.9294C337.966 73.4232 338.427 72.7633 338.717 71.9815L336.842 71.2855C336.668 71.7538 336.414 72.1024 336.085 72.3632L337.329 73.9294ZM338.717 71.9815C338.994 71.2352 339.127 70.4391 339.127 69.6023H337.127C337.127 70.2238 337.029 70.7819 336.842 71.2855L338.717 71.9815ZM339.127 69.6023C339.127 68.7654 338.994 67.9678 338.718 67.2182L336.841 67.9096C337.029 68.4195 337.127 68.9809 337.127 69.6023H339.127ZM338.718 67.2182C338.429 66.433 337.97 65.7688 337.334 65.2576L336.08 66.8163C336.41 67.0816 336.666 67.4354 336.841 67.9096L338.718 67.2182ZM337.334 65.2576C336.638 64.6986 335.788 64.4545 334.86 64.4545V66.4545C335.43 66.4545 335.81 66.5987 336.08 66.8163L337.334 65.2576ZM334.86 64.4545C333.933 64.4545 333.083 64.6986 332.387 65.2576L333.64 66.8163C333.911 66.5987 334.291 66.4545 334.86 66.4545V64.4545ZM332.387 65.2576C331.751 65.7688 331.292 66.433 331.003 67.2182L332.88 67.9096C333.054 67.4354 333.31 67.0816 333.64 66.8163L332.387 65.2576ZM331.003 67.2182C330.727 67.9678 330.593 68.7654 330.593 69.6023H332.593C332.593 68.9809 332.692 68.4195 332.88 67.9096L331.003 67.2182ZM330.593 69.6023C330.593 70.4391 330.727 71.2352 331.004 71.9815L332.879 71.2855C332.692 70.7819 332.593 70.2238 332.593 69.6023H330.593ZM331.004 71.9815C331.294 72.7633 331.755 73.4232 332.392 73.9294L333.636 72.3632C333.307 72.1024 333.053 71.7538 332.879 71.2855L331.004 71.9815ZM332.392 73.9294C333.087 74.4814 333.936 74.7216 334.86 74.7216V72.7216C334.289 72.7216 333.907 72.5782 333.636 72.3632L332.392 73.9294ZM344.578 60.4545L345.578 60.4681L345.592 59.4545H344.578V60.4545ZM344.436 70.9091V71.9091H345.423L345.436 70.9227L344.436 70.9091ZM342.788 70.9091L341.788 70.9227L341.802 71.9091H342.788V70.9091ZM342.646 60.4545V59.4545H341.633L341.646 60.4681L342.646 60.4545ZM342.71 74.7372L343.417 74.0301L343.417 74.0301L342.71 74.7372ZM344.514 72.9332L345.221 72.2261L345.221 72.2261L344.514 72.9332ZM344.713 74.4744L343.859 73.9538L343.855 73.9615L343.85 73.9693L344.713 74.4744ZM344.251 74.9432L344.766 75.8007L344.772 75.797L344.251 74.9432ZM343.578 60.441L343.436 70.8955L345.436 70.9227L345.578 60.4681L343.578 60.441ZM344.436 69.9091H342.788V71.9091H344.436V69.9091ZM343.788 70.8955L343.646 60.441L341.646 60.4681L341.788 70.9227L343.788 70.8955ZM342.646 61.4545H344.578V59.4545H342.646V61.4545ZM343.612 74.1136C343.531 74.1136 343.483 74.0962 343.417 74.0301L342.003 75.4443C342.439 75.8801 342.993 76.1136 343.612 76.1136V74.1136ZM343.417 74.0301C343.351 73.964 343.334 73.9166 343.334 73.8352H341.334C341.334 74.4546 341.567 75.0086 342.003 75.4443L343.417 74.0301ZM343.334 73.8352C343.334 73.7539 343.351 73.7065 343.417 73.6403L342.003 72.2261C341.567 72.6619 341.334 73.2158 341.334 73.8352H343.334ZM343.417 73.6403C343.483 73.5742 343.531 73.5568 343.612 73.5568V71.5568C342.993 71.5568 342.439 71.7904 342.003 72.2261L343.417 73.6403ZM343.612 73.5568C343.694 73.5568 343.741 73.5742 343.807 73.6403L345.221 72.2261C344.786 71.7904 344.232 71.5568 343.612 71.5568V73.5568ZM343.807 73.6403C343.873 73.7065 343.891 73.7539 343.891 73.8352H345.891C345.891 73.2158 345.657 72.6619 345.221 72.2261L343.807 73.6403ZM343.891 73.8352C343.891 73.8875 343.88 73.9198 343.859 73.9538L345.567 74.995C345.783 74.6408 345.891 74.247 345.891 73.8352H343.891ZM343.85 73.9693C343.821 74.019 343.785 74.0561 343.731 74.0894L344.772 75.797C345.106 75.5935 345.378 75.3181 345.576 74.9796L343.85 73.9693ZM343.737 74.0857C343.714 74.0994 343.681 74.1136 343.612 74.1136V76.1136C344.017 76.1136 344.41 76.0143 344.766 75.8007L343.737 74.0857Z" fill="#E4FC52"/>
</g>
</g>
</svg>
