<svg width="600" height="800" viewBox="0 0 600 800" fill="none" xmlns="http://www.w3.org/2000/svg">
<g id="Frame 1">
<g id="Group 962">
<g id="Group">
<path id="Vector" d="M352.434 551.845L346.543 255.194C342.038 244.731 326.998 246.544 323.741 248.916L320.622 332.547L311.613 551.845C314.87 550.798 323.048 549.264 329.563 551.845C336.077 554.356 347.582 552.891 352.434 551.845Z" fill="#06351E"/>
<path id="Vector_2" d="M330.949 552.612C324.365 548.985 315.563 550.729 311.613 551.845L311.751 546.334C314.523 546.125 320.553 545.707 322.701 545.707C325.335 545.707 327.068 546.334 335.384 547.799C342.038 548.915 349.592 547.311 352.503 546.404V551.914C345.503 554.146 334.761 553.24 330.949 552.612Z" fill="#F9E246"/>
<path id="Vector_3" d="M328.662 334.431L324.504 545.497L328.662 546.683V334.431Z" fill="black" fill-opacity="0.08"/>
<path id="Vector_4" d="M341.137 263.843L333.721 547.381L337.325 548.008L341.137 548.148V263.843Z" fill="black" fill-opacity="0.2"/>
<path id="Vector_5" d="M256.931 254.008C256.931 254.008 266.148 271.725 265.524 280.025C263.376 288.186 265.178 294.254 270.099 301.02C270.099 301.02 274.118 330.804 272.94 337.221C271.762 343.638 262.822 363.308 262.822 363.308C262.822 363.308 258.247 373.561 257.693 380.118H299.207V251.776C299.207 251.776 282.92 251.776 277.792 246.963C277.792 246.963 260.604 250.52 256.931 254.008Z" fill="#DBAA75"/>
<path id="Vector_6" d="M341.414 254.008C341.414 254.008 332.196 271.725 332.82 280.025C334.969 288.186 333.167 294.254 328.246 301.02C328.246 301.02 324.226 330.804 325.404 337.221C326.583 343.638 335.523 363.308 335.523 363.308C335.523 363.308 340.097 373.561 340.652 380.118H299.138V251.776C299.138 251.776 314.731 251.636 319.86 246.823C319.929 246.823 337.741 250.52 341.414 254.008Z" fill="#DBAA75"/>
<path id="Vector_7" d="M252.564 258.96C252.564 258.96 254.158 255.891 256.376 254.426C258.802 252.404 265.316 254.008 266.148 263.703C266.98 273.399 262.405 304.996 262.405 304.996L259.495 326.758C259.495 326.758 249.445 339.244 243 324.456C243.069 324.387 249.723 263.773 252.564 258.96Z" fill="#DBAA75"/>
<path id="Vector_8" d="M345.78 258.96C345.78 258.96 344.186 255.891 341.969 254.426C339.543 252.404 333.028 254.008 332.197 263.703C331.365 273.399 335.939 304.996 335.939 304.996L338.85 326.758C338.85 326.758 348.899 339.244 355.345 324.456C355.275 324.387 348.622 263.773 345.78 258.96Z" fill="#DBAA75"/>
<path id="Vector_9" d="M270.861 625.92C270.861 625.92 278.97 638.964 296.365 630.663L295.395 602.693C295.395 602.693 288.465 592.858 281.534 602.693C281.534 602.693 281.603 607.785 281.465 608.204C281.395 608.762 270.791 624.176 270.861 625.92Z" fill="#DBAA75"/>
<path id="Vector_10" d="M327.553 625.92C327.553 625.92 319.444 638.964 302.049 630.663L303.019 602.693C303.019 602.693 309.949 592.858 316.88 602.693C316.88 602.693 316.811 607.785 316.949 608.204C316.949 608.762 327.622 624.176 327.553 625.92Z" fill="#DBAA75"/>
<path id="Vector_11" d="M271.762 622.223C271.762 622.223 286.663 617.411 297.059 627.664L296.712 619.224C296.712 619.224 288.187 611.482 275.504 615.179L271.762 622.223Z" fill="#643D18"/>
<path id="Vector_12" d="M279.524 632.058C269.891 628.292 271 623.618 272.455 621.944C271.554 621.944 270.029 624.246 270.792 626.548C271.416 628.362 272.663 629.687 272.871 629.757C275.505 632.268 276.613 632.268 278.346 633.174C280.079 634.081 283.336 634.29 285.138 634.29C286.871 634.29 291.167 633.523 293.87 632.616C297.058 631.57 297.336 628.92 297.682 628.083C298.098 626.967 296.712 615.667 295.464 610.087L296.019 626.897C295.88 629.408 294.563 630.663 293.524 630.942C285.623 633.453 280.841 632.826 279.524 632.058Z" fill="#643D18"/>
<path id="Vector_13" d="M326.236 622.154C326.236 622.154 311.336 617.341 300.94 627.594L301.286 619.154C301.286 619.154 309.811 611.412 322.494 615.109L326.236 622.154Z" fill="#643D18"/>
<path id="Vector_14" d="M318.474 631.919C328.107 628.152 326.999 623.479 325.543 621.805C326.444 621.805 327.969 624.107 327.206 626.409C326.583 628.222 325.335 629.547 325.127 629.617C322.494 632.128 321.385 632.128 319.652 633.035C317.92 633.942 314.662 634.151 312.86 634.151C311.058 634.151 306.831 633.384 304.128 632.477C300.94 631.431 300.662 628.78 300.316 627.943C299.9 626.827 301.286 615.527 302.534 609.947L301.979 626.757C302.118 629.268 303.435 630.524 304.474 630.803C312.375 633.384 317.157 632.686 318.474 631.919Z" fill="#643D18"/>
<path id="Vector_15" d="M276.475 247.312C280.287 253.729 293.039 256.379 298.93 256.868V338.058H271.415C274.811 315.947 265.039 300.253 264.208 292.72L262.891 303.95L243 300.113L245.218 289.023C246.535 283.164 248.267 269.841 249.445 265.656C250.693 261.471 251.663 255.682 257.554 252.264L276.475 247.312Z" fill="#36A35A"/>
<path id="Vector_16" d="M321.454 247.312C317.642 253.729 304.89 256.379 298.999 256.868V338.058H326.513C323.117 315.947 332.889 300.253 333.721 292.72L335.038 303.95L354.929 300.113L352.711 289.023C351.394 283.164 349.661 269.841 348.483 265.656C347.236 261.471 346.266 255.682 340.375 252.264L321.454 247.312Z" fill="#36A35A"/>
<path id="Vector_17" d="M262.96 303.74L259.98 303.113L264.346 287.419L264.208 292.789L262.96 303.74Z" fill="black" fill-opacity="0.08"/>
<path id="Vector_18" d="M275.089 287.837C272.108 287.14 267.188 279.397 265.178 275.77C265.386 278.002 265.524 283.164 264.762 286.093C264 289.023 264.138 293.208 264.762 294.882L275.089 287.837Z" fill="black" fill-opacity="0.08"/>
<path id="Vector_19" d="M334.761 303.88L337.741 303.252L333.375 287.558L333.513 292.929L334.761 303.88Z" fill="black" fill-opacity="0.08"/>
<path id="Vector_20" d="M322.632 287.907C325.612 287.209 330.533 279.467 332.543 275.84C332.335 278.072 332.197 283.233 332.959 286.163C333.721 289.093 333.583 293.278 332.959 294.952L322.632 287.907Z" fill="black" fill-opacity="0.08"/>
<path id="Vector_21" d="M331.711 350.055L298.514 371.887L263.792 451.054C264.624 455.728 263.792 471.98 263.792 473.933C263.792 475.886 261.366 510.482 263.792 518.992V600.391L275.782 603.042C279.178 606.46 290.544 609.598 293.108 609.598C296.365 609.598 303.712 607.157 306.969 608.831C309.603 610.157 326.721 602.275 331.642 600.391L334.137 512.226L336.424 456.355L341.691 412.552C346.334 391.487 337.602 362.471 331.711 350.055Z" fill="#006838"/>
<path id="Vector_22" d="M298.444 373.073C298.375 377.049 298.375 381.373 298.306 385.977C298.86 438.709 310.018 554.286 314.038 607.506L311.405 608.273L309.741 608.692L309.117 608.831L308.494 608.971H307.524C301.494 574.026 297.89 452.171 298.236 386.047C298.236 381.094 298.306 376.77 298.444 373.073Z" fill="black" fill-opacity="0.2"/>
<path id="Vector_23" d="M291.237 609.32L293.94 383.605C295.603 387.093 298.237 534.477 297.405 608.971L294.91 609.459L293.039 609.599L291.237 609.32Z" fill="black" fill-opacity="0.08"/>
<path id="Vector_24" d="M298.653 372.724C298.86 373.352 299.138 373.98 299.346 374.607C303.712 383.326 326.028 420.155 338.018 439.755L337.394 445.126C323.533 432.152 306.692 393.859 299.346 374.607C298.722 373.352 298.514 372.724 298.653 372.724Z" fill="black" fill-opacity="0.08"/>
<path id="Vector_25" d="M331.919 349.985L298.93 371.538L298.514 372.654L301.91 379.141L334.899 357.867L331.919 349.985Z" fill="#F9E246"/>
<path id="Vector_26" d="M334.899 494.858C323.741 481.605 305.791 407.6 298.514 372.724C304.405 449.032 322.494 494.928 334.414 507.064L334.899 494.858Z" fill="black" fill-opacity="0.05"/>
<path id="Vector_27" d="M326.167 392.464C320.345 391.766 307.662 383.187 302.049 378.932C305.514 382.419 313.345 389.813 316.672 391.208C319.999 392.603 324.365 392.673 326.167 392.464Z" fill="black" fill-opacity="0.08"/>
<path id="Vector_28" d="M302.049 379.002C307.177 386.535 325.058 402.159 336.771 405.786C329.008 404.182 310.019 397.207 302.049 379.002Z" fill="black" fill-opacity="0.08"/>
<path id="Vector_29" d="M299.484 393.649C298.93 386.326 298.514 379.56 298.306 373.84C298.653 380.745 299.068 387.372 299.484 393.649C302.811 436.407 312.652 499.95 333.791 517.039V526.944C326.999 521.712 308.009 521.224 299.484 393.649Z" fill="black" fill-opacity="0.08"/>
<path id="Vector_30" d="M323.88 245.08C315.563 259.239 280.494 284.838 264.416 295.161C264.416 297.323 265.94 302.345 268.99 310.994C272.802 321.736 268.99 338.267 268.99 340.848C268.99 342.94 264.277 357.867 261.02 365.749C254.366 377.188 255.891 403.763 255.891 410.041C255.891 415.063 261.297 440.173 264 452.101C279.732 416.039 312.514 340.778 317.573 328.083C322.632 315.458 339.196 274.863 346.82 256.17C346.266 254.636 344.672 251.218 342.662 249.614C340.652 247.94 329.286 245.917 323.88 245.08Z" fill="#006838"/>
<path id="Vector_31" d="M318.266 252.194C318.543 251.846 322.078 247.242 323.811 244.94L326.236 245.359C321.87 256.519 284.583 288.883 266.495 303.601C265.594 302.485 264.277 297.672 264.277 295.021L278.485 285.466L296.712 271.655L311.89 258.611C313.969 256.589 318.058 252.613 318.266 252.194Z" fill="#F9E246"/>
<path id="Vector_32" d="M263.93 451.333L286.732 400.276L317.296 328.781L346.959 256.17L345.78 253.729L344.256 251.288L261.921 442.405L263.93 451.333Z" fill="#F9E246"/>
<path id="Vector_33" d="M268.92 310.994C281.326 299.137 293.801 290.836 302.742 280.513C304.959 277.444 307.246 274.236 309.533 270.957C307.593 274.375 305.306 277.514 302.742 280.513C291.445 296.137 280.91 308.972 270.861 316.016L270.237 316.365L269.683 313.715L268.92 310.994Z" fill="black" fill-opacity="0.08"/>
<path id="Vector_34" d="M255.822 403.554C261.228 397.486 311.474 296.626 335.731 247.242L338.919 248.009C311.613 303.322 256.861 418.969 256.861 417.923C256.861 416.876 255.198 408.646 255.822 403.554Z" fill="black" fill-opacity="0.08"/>
<path id="Vector_35" d="M351.186 318.807C342.315 315.18 326.583 312.389 318.335 308.623C315.702 307.367 310.157 305.763 308.286 304.856C306.276 303.81 302.742 304.368 301.286 306.949C301.286 307.019 301.217 307.019 301.217 307.088C299.9 309.599 300.94 312.25 303.712 313.924C310.989 318.249 319.513 322.992 322.563 323.619C328.593 326.061 342.384 331.153 349.315 332.059H349.384C349.592 332.059 349.8 332.129 350.008 332.129C356.037 332.548 361.582 322.155 351.186 318.807Z" fill="#DBAA75"/>
<path id="Vector_36" d="M250.693 318.807C259.564 315.18 275.297 312.389 283.544 308.623C286.178 307.367 291.722 305.763 293.593 304.856C295.603 303.81 299.138 304.368 300.593 306.949C300.593 307.019 300.662 307.019 300.662 307.088C301.979 309.599 300.94 312.25 298.168 313.924C290.89 318.249 282.366 322.992 279.316 323.619C273.287 326.061 259.495 331.153 252.564 332.059H252.495C252.287 332.059 252.079 332.129 251.871 332.129C245.842 332.548 240.297 322.155 250.693 318.807Z" fill="#DBAA75"/>
<path id="Vector_37" d="M305.93 286.651C305.167 284.768 301.979 289.162 300.524 291.604C300.454 288.116 300.732 282.606 300.732 279.397L301.355 277.932C301.771 276.398 298.86 272.562 295.672 277.584C292.484 282.606 290.613 291.673 290.336 293.487C290.266 294.184 290.474 298.3 290.89 303.601C290.89 303.601 290.89 303.601 290.89 303.671C290.96 304.438 291.029 305.275 291.237 306.112C291.722 308.972 292.9 311.971 296.019 311.971C298.999 311.971 300.524 310.367 301.147 305.554C301.147 305.484 301.147 305.414 301.147 305.345C301.147 304.577 301.217 303.74 301.355 302.834C302.256 296.347 306.761 288.744 305.93 286.651Z" fill="#DBAA75"/>
<path id="Vector_38" d="M295.88 306.6C296.504 306.251 297.336 306.53 297.613 307.228C297.96 307.856 297.682 308.693 296.989 308.972C296.366 309.32 295.534 309.041 295.257 308.344C294.979 307.716 295.257 306.879 295.88 306.6Z" fill="#DBAA75"/>
<path id="Vector_39" d="M294.771 286.651C295.534 284.768 298.722 289.162 300.177 291.604C300.247 288.116 299.969 282.606 299.969 279.397L299.346 277.932C298.93 276.398 301.841 272.562 305.029 277.584C308.217 282.606 310.088 291.673 310.365 293.487C310.434 294.184 310.226 298.3 309.81 303.601C309.81 303.601 309.81 303.601 309.81 303.671C309.741 304.438 309.672 305.275 309.464 306.112C308.979 308.972 307.801 311.971 304.682 311.971C301.702 311.971 300.177 310.367 299.554 305.554C299.554 305.484 299.554 305.414 299.554 305.345C299.554 304.577 299.484 303.74 299.346 302.834C298.375 296.347 293.871 288.744 294.771 286.651Z" fill="#DBAA75"/>
<path id="Vector_40" d="M304.751 306.6C304.128 306.251 303.296 306.53 303.019 307.228C302.672 307.856 302.949 308.693 303.642 308.972C304.266 309.32 305.098 309.041 305.375 308.344C305.722 307.716 305.445 306.879 304.751 306.6Z" fill="#DBAA75"/>
<path id="Vector_41" opacity="0.5" d="M299.761 295.998L300.732 310.157L301.286 295.998C300.732 290.627 300.87 278.839 300.385 275.7C300.385 281.908 300.385 290.697 299.761 295.998Z" fill="#AD7038"/>
<path id="Vector_42" opacity="0.4" d="M292.415 293.696C292.831 289.232 294.564 279.258 298.306 275.212" stroke="#AD7038" stroke-width="0.992242" stroke-linecap="round"/>
<path id="Vector_43" opacity="0.4" d="M308.147 293.696C307.732 289.232 305.999 279.258 302.256 275.212" stroke="#AD7038" stroke-width="0.992242" stroke-linecap="round"/>
<path id="Vector_44" opacity="0.4" d="M294.633 293.696C295.049 289.232 295.88 279.258 299.623 275.212" stroke="#AD7038" stroke-width="0.992242" stroke-linecap="round"/>
<path id="Vector_45" opacity="0.4" d="M296.365 310.157C295.118 309.809 292.276 309.111 291.098 305.972" stroke="#AD7038" stroke-width="0.992242" stroke-linecap="round"/>
<path id="Vector_46" opacity="0.4" d="M304.405 310.157C305.652 309.809 308.494 308.972 309.672 305.345" stroke="#AD7038" stroke-width="0.992242" stroke-linecap="round"/>
<path id="Vector_47" opacity="0.4" d="M305.93 293.696C305.514 289.232 304.682 279.258 300.94 275.212" stroke="#AD7038" stroke-width="0.992242" stroke-linecap="round"/>
<path id="Vector_48" d="M265.802 205.601C265.039 205.531 264 205.322 264 204.554C263.93 204.206 264.138 203.927 264.346 203.648C264.762 203.09 265.455 202.601 266.148 202.392C265.524 201.974 264.97 201.485 264.485 200.858C264.346 200.579 264.208 200.3 264.277 200.09C264.416 199.811 264.831 199.742 265.109 199.742C265.802 199.742 266.495 199.742 267.257 199.742C266.703 199.393 266.079 199.323 265.594 198.974C265.039 198.626 264.693 197.928 264.97 197.44C265.178 197.091 265.525 196.882 265.94 196.812C267.119 196.463 268.435 196.463 269.613 196.812C268.435 196.533 267.326 195.835 266.495 194.929C266.425 194.859 266.287 194.65 266.287 194.51C266.287 194.231 266.425 194.092 266.633 193.952C267.465 193.255 268.574 193.185 269.683 193.324C269.891 193.324 270.237 193.394 270.376 193.255C270.792 192.976 270.445 192.348 270.376 191.86C270.237 191.092 270.861 190.255 271.623 190.116C272.316 190.046 272.94 190.465 273.356 191.023C273.772 191.581 273.91 192.278 274.049 192.976C274.118 192.208 273.98 191.371 274.118 190.534C274.257 189.697 274.881 188.93 275.712 189C276.336 189.07 276.752 189.697 276.89 190.325C276.96 190.953 276.821 191.581 276.683 192.208C277.098 192.208 277.514 192.278 277.861 192.418C278.207 192.627 278.415 193.045 278.276 193.464C278.207 193.673 278.069 193.813 278.069 193.952C278.069 194.51 279.247 194.371 279.385 194.929C279.455 195.277 279.177 195.626 279.385 195.905C279.455 195.975 279.593 196.045 279.663 196.114C280.286 196.324 281.049 196.324 281.395 196.882C281.672 197.37 281.464 197.998 281.049 198.416C280.633 198.835 280.078 198.974 279.593 199.114C280.148 199.602 280.633 200.369 280.494 201.137C280.425 201.904 279.801 202.671 279.108 202.671C279.871 202.741 280.564 203.508 280.494 204.275C280.425 205.043 279.593 205.74 278.831 205.461C279.177 205.949 279.524 206.438 279.524 206.996C279.524 207.554 279.177 208.251 278.623 208.251C278.069 208.321 277.722 207.833 277.376 207.484C277.514 208.391 277.583 209.367 277.583 210.344C277.583 210.483 277.584 210.692 277.514 210.832C277.445 210.971 277.237 211.111 277.029 211.111C276.267 211.32 275.366 210.971 274.881 210.344C274.95 210.902 275.088 211.46 274.811 211.948C274.603 212.436 273.98 212.855 273.495 212.506C273.079 212.297 272.94 211.599 272.524 211.39C271.831 210.971 270.653 211.878 270.099 211.181C269.683 210.762 270.029 209.995 269.613 209.576C269.059 209.018 267.95 209.646 267.465 209.018C267.326 208.739 267.326 208.46 267.188 208.251C266.703 207.344 264.97 207.972 264.485 207.065C264.277 206.647 264.416 206.159 264.762 205.88C265.109 205.601 265.525 205.461 265.94 205.461" fill="#FBEB59"/>
<path id="Vector_49" d="M265.871 205.391C265.178 205.322 263.93 205.112 264.069 204.206C264.138 203.717 264.554 203.299 264.901 203.02C265.317 202.671 265.732 202.462 266.218 202.322C266.287 202.322 266.287 202.253 266.218 202.253C265.802 202.043 265.455 201.695 265.109 201.416C264.831 201.137 264.138 200.439 264.346 200.021C264.624 199.602 265.247 199.742 265.663 199.742C266.217 199.742 266.772 199.742 267.257 199.742C267.326 199.742 267.326 199.672 267.326 199.672C266.772 199.323 266.079 199.253 265.594 198.905C265.039 198.486 264.693 197.579 265.386 197.161C265.94 196.812 266.841 196.742 267.465 196.742C268.227 196.672 268.99 196.812 269.752 196.951C269.821 196.951 269.821 196.882 269.821 196.882C268.712 196.603 267.742 196.045 266.911 195.347C266.633 195.138 266.218 194.719 266.564 194.301C266.772 194.092 266.98 193.952 267.257 193.813C267.812 193.603 268.366 193.464 268.99 193.464C269.406 193.464 269.96 193.603 270.376 193.464C270.722 193.324 270.792 192.976 270.653 192.697C270.584 192.139 270.376 191.72 270.584 191.232C270.792 190.744 271.277 190.395 271.831 190.395C273.356 190.325 273.91 192.069 274.118 193.255C274.118 193.324 274.188 193.324 274.188 193.255C274.326 192.069 273.841 190.186 275.297 189.488C275.99 189.139 276.613 189.628 276.891 190.255C277.168 190.953 276.96 191.72 276.752 192.487C276.752 192.557 276.752 192.557 276.821 192.557C277.306 192.557 277.93 192.627 278.277 192.976C278.485 193.185 278.554 193.534 278.415 193.813C278.346 193.952 278.207 194.092 278.207 194.231C278.138 194.65 278.762 194.789 279.108 194.859C279.247 194.929 279.386 194.929 279.455 195.068C279.594 195.277 279.593 195.487 279.524 195.626C279.455 195.835 279.455 196.114 279.594 196.254C279.871 196.463 280.287 196.463 280.633 196.533C281.049 196.603 281.395 196.742 281.603 197.161C281.881 197.649 281.603 198.207 281.257 198.556C280.841 198.974 280.287 199.114 279.802 199.253C279.732 199.253 279.732 199.323 279.732 199.323C280.287 199.811 280.702 200.509 280.633 201.276C280.564 201.974 280.009 202.671 279.247 202.741C279.178 202.741 279.178 202.811 279.247 202.811C280.009 202.88 280.702 203.578 280.633 204.345C280.564 205.112 279.732 205.67 279.039 205.461C278.97 205.461 278.97 205.531 278.97 205.531C279.386 206.159 279.94 206.996 279.524 207.763C279.316 208.181 278.97 208.321 278.554 208.251C278.138 208.181 277.861 207.833 277.653 207.554C277.584 207.484 277.584 207.554 277.584 207.623C277.653 208.181 277.722 208.67 277.792 209.228C277.792 209.507 277.861 209.786 277.861 210.065C277.861 210.344 277.93 210.692 277.722 210.902C277.445 211.25 276.821 211.181 276.405 211.111C275.99 211.041 275.574 210.692 275.297 210.413C275.227 210.344 275.158 210.413 275.227 210.483C275.366 211.181 275.504 212.157 274.673 212.645C274.326 212.855 273.91 212.785 273.703 212.506C273.495 212.297 273.425 212.018 273.217 211.808C272.94 211.46 272.455 211.39 272.039 211.46C271.554 211.529 270.792 211.878 270.445 211.25C270.168 210.762 270.376 210.134 269.96 209.786C269.613 209.507 269.059 209.576 268.713 209.576C268.435 209.576 268.158 209.576 267.95 209.367C267.673 209.158 267.742 208.739 267.534 208.46C267.257 208.112 266.91 208.042 266.495 207.972C266.01 207.902 265.386 207.902 264.97 207.554C264.623 207.205 264.693 206.647 265.039 206.368C265.386 206.019 265.802 205.949 266.287 205.949C266.356 205.949 266.356 205.81 266.287 205.88C265.663 205.88 264.97 206.089 264.693 206.717C264.485 207.275 264.762 207.763 265.247 207.902C265.732 208.112 266.287 208.042 266.772 208.181C267.049 208.251 267.326 208.391 267.465 208.67C267.604 209.018 267.604 209.367 267.881 209.576C268.297 209.925 268.99 209.646 269.544 209.786C270.376 209.995 269.96 210.971 270.376 211.46C270.653 211.878 271.277 211.808 271.693 211.669C271.97 211.599 272.316 211.529 272.663 211.599C273.079 211.669 273.217 212.018 273.425 212.297C273.772 212.855 274.326 213.064 274.881 212.645C275.574 212.157 275.435 211.181 275.297 210.483C275.227 210.483 275.227 210.553 275.227 210.553C275.782 211.25 276.891 211.739 277.722 211.25C278.207 210.971 277.999 210.274 277.999 209.855C277.93 209.158 277.93 208.46 277.792 207.693C277.722 207.693 277.722 207.763 277.722 207.763C278 208.112 278.346 208.46 278.831 208.53C279.247 208.6 279.594 208.46 279.732 208.112C280.356 207.275 279.801 206.298 279.316 205.601C279.316 205.67 279.247 205.67 279.247 205.67C280.009 205.88 280.91 205.322 280.98 204.485C281.118 203.648 280.356 202.811 279.524 202.741C279.524 202.811 279.524 202.811 279.524 202.811C280.287 202.741 280.841 202.113 280.98 201.416C281.118 200.579 280.633 199.742 280.079 199.253C280.079 199.323 280.079 199.323 280.009 199.323C280.772 199.114 281.742 198.765 281.95 197.998C282.227 197.23 281.673 196.672 280.98 196.533C280.772 196.463 280.564 196.463 280.425 196.393C280.079 196.324 279.663 196.184 279.802 195.766C279.871 195.487 279.94 195.208 279.732 194.998C279.524 194.789 279.316 194.789 279.039 194.65C278.9 194.58 278.762 194.58 278.623 194.44C278.346 194.231 278.623 193.952 278.693 193.743C278.831 193.394 278.623 192.976 278.415 192.766C278 192.487 277.514 192.418 277.029 192.418C277.029 192.487 277.098 192.487 277.098 192.487C277.306 191.72 277.514 190.883 277.168 190.116C276.891 189.558 276.405 189.139 275.712 189.279C275.158 189.349 274.673 189.976 274.465 190.465C274.188 191.302 274.396 192.278 274.257 193.255C274.326 193.255 274.326 193.255 274.326 193.255C274.118 192.139 273.772 190.883 272.594 190.465C271.693 190.116 270.653 190.674 270.514 191.72C270.445 192.278 270.861 192.766 270.722 193.255C270.584 193.673 270.029 193.534 269.683 193.534C269.336 193.534 269.059 193.464 268.713 193.534C268.158 193.603 267.604 193.743 267.049 194.022C266.703 194.231 266.217 194.58 266.495 195.068C266.633 195.277 266.91 195.556 267.188 195.766C267.465 195.975 267.742 196.184 268.02 196.324C268.574 196.742 269.267 196.951 269.96 197.161C269.96 197.091 269.96 197.091 270.029 197.091C269.128 196.882 268.227 196.812 267.326 196.882C266.703 196.951 265.732 197.021 265.316 197.579C264.901 197.998 265.039 198.626 265.455 199.044C266.01 199.602 266.91 199.742 267.534 200.09C267.534 200.021 267.534 200.021 267.604 200.021C266.841 200.021 266.148 200.021 265.455 200.021C265.109 200.021 264.624 200.09 264.554 200.439C264.416 200.858 264.831 201.346 265.109 201.625C265.524 202.043 265.94 202.462 266.425 202.741C266.425 202.671 266.425 202.671 266.425 202.671C265.871 202.811 265.386 203.09 264.97 203.438C264.554 203.787 264.138 204.275 264.138 204.764C264.138 205.67 265.386 205.949 266.079 205.949C265.94 205.461 265.94 205.391 265.871 205.391Z" fill="#58130E"/>
<path id="Vector_50" d="M264.208 219.411C263.237 219.342 261.92 219.063 261.851 218.086C261.782 217.668 262.059 217.249 262.267 216.9C262.822 216.133 263.653 215.575 264.623 215.296C263.792 214.808 263.099 214.11 262.544 213.343C262.336 213.064 262.198 212.645 262.267 212.366C262.475 212.018 262.96 211.948 263.376 211.948C264.277 211.948 265.178 211.948 266.079 211.948C265.386 211.529 264.623 211.39 263.93 211.041C263.237 210.623 262.752 209.716 263.099 209.088C263.376 208.67 263.861 208.391 264.346 208.251C265.871 207.833 267.534 207.833 269.059 208.251C267.534 207.902 266.079 206.996 265.039 205.88C264.901 205.74 264.762 205.601 264.762 205.391C264.762 205.112 264.97 204.903 265.178 204.694C266.217 203.857 267.673 203.717 269.059 203.857C269.336 203.857 269.752 203.927 269.96 203.717C270.445 203.369 270.099 202.601 269.96 201.974C269.752 200.997 270.584 199.951 271.554 199.811C272.386 199.672 273.287 200.23 273.772 200.997C274.257 201.764 274.465 202.601 274.604 203.438C274.742 202.462 274.534 201.416 274.742 200.369C274.95 199.323 275.712 198.346 276.752 198.486C277.584 198.556 278.069 199.323 278.207 200.16C278.346 200.997 278.069 201.764 277.93 202.532C278.415 202.532 278.97 202.601 279.386 202.811C279.801 203.09 280.148 203.648 279.94 204.136C279.871 204.415 279.663 204.554 279.663 204.764C279.663 205.531 281.118 205.322 281.395 206.019C281.534 206.438 281.118 206.926 281.395 207.275C281.534 207.414 281.673 207.484 281.742 207.554C282.574 207.833 283.544 207.833 283.96 208.53C284.306 209.158 284.029 209.925 283.544 210.413C282.99 210.902 282.297 211.111 281.673 211.25C282.435 211.878 282.99 212.785 282.851 213.761C282.782 214.738 282.019 215.645 281.049 215.715C282.019 215.854 282.92 216.761 282.851 217.737C282.782 218.714 281.673 219.621 280.702 219.202C281.118 219.83 281.534 220.458 281.603 221.155C281.673 221.922 281.188 222.69 280.425 222.759C279.732 222.829 279.247 222.271 278.831 221.783C279.039 222.969 279.109 224.224 279.109 225.34C279.109 225.549 279.108 225.759 278.97 225.968C278.831 226.177 278.623 226.247 278.346 226.317C277.376 226.596 276.267 226.107 275.643 225.34C275.782 226.038 275.92 226.735 275.574 227.363C275.297 227.991 274.534 228.479 273.911 228.13C273.356 227.851 273.217 227.014 272.663 226.735C271.762 226.177 270.237 227.363 269.544 226.456C269.059 225.898 269.405 224.991 268.92 224.433C268.227 223.666 266.772 224.503 266.217 223.666C266.01 223.387 266.01 222.969 265.871 222.69C265.247 221.504 263.029 222.341 262.406 221.225C262.128 220.737 262.336 220.109 262.752 219.76C263.168 219.411 263.722 219.272 264.277 219.272" fill="#F47A20"/>
<path id="Vector_51" d="M264.208 219.342C263.376 219.272 261.782 218.993 261.92 217.807C261.99 217.179 262.544 216.621 262.96 216.273C263.445 215.854 264 215.575 264.623 215.436C264.693 215.436 264.693 215.296 264.623 215.296C264.138 215.017 263.722 214.598 263.307 214.25C262.96 213.901 262.059 212.994 262.406 212.436C262.683 211.948 263.584 212.087 264.069 212.087C264.762 212.087 265.386 212.087 266.079 212.087C266.148 212.087 266.217 211.948 266.148 211.948C265.455 211.529 264.623 211.39 263.93 210.971C263.168 210.483 262.752 209.297 263.653 208.739C264.415 208.321 265.455 208.181 266.217 208.181C267.188 208.112 268.089 208.251 269.059 208.46C269.198 208.46 269.198 208.321 269.128 208.321C267.811 207.972 266.564 207.275 265.524 206.368C265.178 206.089 264.693 205.531 265.108 205.043C265.386 204.764 265.663 204.624 265.94 204.415C266.633 204.136 267.326 203.996 268.089 203.996C268.643 203.996 269.336 204.206 269.821 203.996C270.237 203.787 270.306 203.369 270.168 203.02C270.029 202.322 269.821 201.764 270.029 201.137C270.306 200.509 270.861 200.021 271.623 200.021C273.495 199.951 274.188 202.183 274.465 203.648C274.465 203.787 274.603 203.717 274.603 203.648C274.811 202.113 274.188 199.672 275.92 198.835C276.752 198.416 277.583 199.044 277.93 199.811C278.277 200.718 277.999 201.695 277.722 202.671C277.722 202.741 277.722 202.811 277.791 202.811C278.415 202.811 279.178 202.88 279.593 203.369C279.871 203.648 279.871 204.066 279.801 204.415C279.732 204.624 279.524 204.764 279.524 204.973C279.455 205.531 280.287 205.67 280.633 205.81C280.841 205.88 280.91 205.949 281.049 206.089C281.257 206.368 281.257 206.577 281.188 206.856C281.118 207.135 281.049 207.484 281.326 207.693C281.603 207.972 282.158 207.972 282.643 208.042C283.128 208.181 283.613 208.321 283.89 208.879C284.168 209.507 283.89 210.204 283.474 210.692C282.989 211.181 282.227 211.39 281.603 211.529C281.534 211.529 281.534 211.599 281.534 211.669C282.227 212.297 282.782 213.134 282.712 214.11C282.643 215.017 281.881 215.924 280.98 215.994C280.91 215.994 280.841 216.133 280.98 216.133C281.881 216.273 282.851 217.11 282.712 218.086C282.643 219.063 281.603 219.83 280.702 219.481C280.633 219.481 280.564 219.551 280.633 219.621C281.188 220.458 281.881 221.504 281.326 222.48C281.049 222.969 280.564 223.248 280.079 223.108C279.593 222.969 279.247 222.55 278.9 222.201C278.831 222.132 278.762 222.201 278.762 222.271C278.9 222.969 278.97 223.596 279.039 224.294C279.039 224.643 279.108 224.991 279.108 225.34C279.108 225.689 279.247 226.177 278.9 226.456C278.554 226.875 277.722 226.805 277.237 226.735C276.683 226.596 276.197 226.247 275.851 225.828C275.782 225.759 275.643 225.828 275.712 225.898C275.92 226.805 275.989 228.06 275.019 228.618C274.603 228.897 274.118 228.828 273.772 228.409C273.494 228.13 273.425 227.781 273.148 227.502C272.801 227.084 272.247 227.014 271.692 227.084C271.069 227.223 270.099 227.572 269.683 226.805C269.405 226.177 269.613 225.41 269.059 224.922C268.643 224.573 267.95 224.643 267.465 224.643C267.118 224.643 266.702 224.643 266.495 224.364C266.217 224.085 266.217 223.527 266.009 223.178C265.732 222.759 265.178 222.62 264.693 222.55C264.069 222.411 263.307 222.48 262.821 221.992C262.406 221.574 262.544 220.806 262.96 220.458C263.376 220.039 263.93 219.969 264.554 219.9C264.693 219.9 264.693 219.69 264.554 219.76C263.722 219.76 262.891 220.039 262.544 220.806C262.267 221.504 262.613 222.132 263.237 222.341C263.861 222.62 264.554 222.55 265.108 222.69C265.455 222.759 265.802 222.969 265.94 223.317C266.148 223.736 266.148 224.224 266.495 224.503C267.049 224.922 267.881 224.643 268.574 224.782C269.613 225.061 269.128 226.247 269.613 226.944C269.96 227.502 270.722 227.363 271.277 227.223C271.623 227.154 272.108 227.014 272.524 227.084C273.009 227.223 273.217 227.642 273.495 227.991C273.91 228.688 274.603 228.967 275.366 228.409C276.197 227.781 276.128 226.526 275.92 225.619C275.851 225.619 275.782 225.689 275.782 225.689C276.475 226.526 277.861 227.154 278.9 226.526C279.524 226.177 279.247 225.27 279.247 224.712C279.178 223.806 279.108 222.899 278.97 221.992C278.9 221.992 278.9 222.062 278.831 222.062C279.178 222.48 279.663 222.969 280.217 223.038C280.702 223.108 281.118 222.899 281.395 222.55C282.227 221.504 281.465 220.248 280.841 219.342C280.841 219.411 280.772 219.411 280.772 219.481C281.742 219.76 282.851 219.063 282.989 218.016C283.197 216.9 282.158 215.924 281.118 215.784C281.118 215.854 281.118 215.924 281.118 215.924C282.019 215.784 282.781 215.087 282.989 214.11C283.197 213.064 282.574 212.018 281.811 211.32C281.811 211.39 281.811 211.39 281.742 211.46C282.712 211.181 283.89 210.762 284.168 209.716C284.445 208.739 283.89 208.042 282.92 207.833C282.643 207.763 282.435 207.693 282.158 207.623C281.742 207.484 281.257 207.344 281.326 206.786C281.395 206.438 281.534 206.089 281.188 205.81C280.91 205.531 280.633 205.531 280.356 205.391C280.148 205.322 280.009 205.252 279.871 205.112C279.593 204.833 279.871 204.485 280.009 204.206C280.217 203.787 279.94 203.229 279.663 202.95C279.178 202.601 278.484 202.532 277.93 202.532C277.93 202.601 277.999 202.601 277.999 202.671C278.277 201.695 278.554 200.648 278.138 199.672C277.861 198.974 277.168 198.416 276.336 198.556C275.574 198.695 275.019 199.393 274.811 200.09C274.465 201.206 274.673 202.462 274.534 203.648C274.603 203.648 274.673 203.648 274.673 203.648C274.395 202.253 273.91 200.648 272.455 200.09C271.277 199.672 270.029 200.369 269.821 201.695C269.752 202.392 270.237 203.02 270.099 203.648C269.891 204.206 269.267 203.996 268.782 203.996C268.366 203.996 267.95 203.927 267.534 203.996C266.772 204.066 266.148 204.275 265.455 204.624C265.039 204.903 264.415 205.391 264.762 205.949C264.97 206.228 265.316 206.577 265.594 206.786C265.871 207.065 266.287 207.275 266.633 207.554C267.396 208.042 268.158 208.391 269.059 208.6C269.059 208.53 269.059 208.46 269.128 208.46C268.019 208.181 266.841 208.112 265.732 208.181C264.901 208.251 263.792 208.391 263.237 209.018C262.752 209.576 262.96 210.344 263.445 210.902C264.138 211.669 265.247 211.739 266.079 212.227C266.079 212.157 266.079 212.087 266.148 212.087C265.247 212.087 264.346 212.087 263.445 212.087C263.029 212.087 262.406 212.157 262.267 212.645C262.059 213.203 262.614 213.831 262.96 214.18C263.445 214.738 264 215.226 264.623 215.575C264.623 215.505 264.623 215.436 264.623 215.436C263.93 215.645 263.307 215.994 262.821 216.412C262.336 216.831 261.782 217.458 261.782 218.156C261.782 219.342 263.307 219.621 264.208 219.69C264.346 219.481 264.346 219.342 264.208 219.342Z" fill="#58130E"/>
<path id="Vector_52" d="M280.841 234.478C290.142 234.478 297.682 226.889 297.682 217.528C297.682 208.167 290.142 200.579 280.841 200.579C271.54 200.579 264 208.167 264 217.528C264 226.889 271.54 234.478 280.841 234.478Z" fill="black"/>
<path id="Vector_53" d="M323.741 195.766C325.682 195.905 325.474 198.486 325.335 200.509L324.781 207.902C324.642 209.855 322.909 211.39 320.969 211.25L317.365 210.971L318.127 200.021C318.266 197.998 321.731 195.626 323.741 195.766Z" fill="#AD7038"/>
<path id="Vector_54" d="M273.495 195.766C271.554 195.905 271.762 198.486 271.901 200.509L272.455 207.902C272.594 209.855 274.326 211.39 276.267 211.25L279.871 210.971L279.108 200.021C278.97 197.998 275.435 195.626 273.495 195.766Z" fill="#AD7038"/>
<path id="Vector_55" d="M309.326 227.921H298.999H288.673C288.257 232.525 289.851 240.267 277.861 246.893C277.861 246.893 282.297 252.055 298.999 252.055C315.702 252.055 320.137 246.893 320.137 246.893C308.148 240.267 309.741 232.594 309.326 227.921Z" fill="#DBAA75"/>
<path id="Vector_56" opacity="0.51" d="M288.742 227.921C288.88 231.13 293.247 243.754 313.415 241.732C313.415 241.732 311.89 240.058 310.642 237.128C309.326 234.268 309.395 227.921 309.395 227.921H288.742Z" fill="#AD7038"/>
<path id="Vector_57" d="M318.266 180.211C314.593 175.608 305.167 172.26 299.969 172.26C299.554 172.26 298.375 172.329 298.029 172.329C292.831 172.329 283.405 175.677 279.732 180.281C275.019 186.14 276.752 194.371 276.752 204.206C276.752 221.783 286.316 236.012 298.098 236.012C298.514 236.012 298.861 235.942 299.207 235.803C299.484 235.873 299.762 235.942 299.969 235.942C311.751 235.942 321.316 221.713 321.316 204.136C321.316 194.231 322.979 186.07 318.266 180.211Z" fill="#DBAA75"/>
<path id="Vector_58" d="M299.831 222.341C296.088 222.341 292.415 220.806 292.415 218.923H306.9C306.9 220.806 302.742 222.341 299.831 222.341Z" fill="#FBFCF8"/>
<path id="Vector_59" fill-rule="evenodd" clip-rule="evenodd" d="M303.643 212.227C303.781 212.436 303.712 212.715 303.573 212.855C302.811 213.413 301.979 213.552 301.494 213.552C300.732 214.529 299.692 214.738 298.791 214.599C298.306 214.529 297.89 214.319 297.544 214.11C297.336 213.971 297.058 213.761 296.92 213.552C296.435 213.552 296.019 213.482 295.742 213.343C295.534 213.273 295.395 213.203 295.256 213.134C295.118 213.064 294.979 212.924 294.91 212.855C294.771 212.645 294.771 212.366 294.979 212.227C295.187 212.087 295.464 212.087 295.603 212.297C295.603 212.297 295.672 212.366 295.742 212.366C295.811 212.436 295.95 212.506 296.088 212.506C296.365 212.576 296.781 212.715 297.197 212.645H297.474L297.613 212.924C297.682 212.994 297.821 213.203 298.098 213.343C298.375 213.482 298.653 213.622 298.999 213.692C299.692 213.831 300.454 213.622 301.009 212.855L301.147 212.645L301.425 212.715C301.702 212.785 302.464 212.715 303.157 212.227C303.227 212.018 303.504 212.018 303.643 212.227Z" fill="#AD7038"/>
<path id="Vector_60" d="M311.376 201.368C311.418 200.367 310.615 199.52 309.583 199.476C308.55 199.432 307.679 200.207 307.637 201.208C307.595 202.209 308.398 203.056 309.43 203.1C310.463 203.144 311.334 202.368 311.376 201.368Z" fill="#333333"/>
<path id="Vector_61" d="M288.956 203.089C289.989 203.045 290.792 202.198 290.749 201.197C290.707 200.197 289.836 199.421 288.804 199.465C287.771 199.509 286.968 200.356 287.01 201.357C287.053 202.358 287.924 203.133 288.956 203.089Z" fill="#333333"/>
<path id="Vector_62" d="M309.88 208.181C311.87 208.181 313.484 207.807 313.484 207.344C313.484 206.882 311.87 206.507 309.88 206.507C307.89 206.507 306.276 206.882 306.276 207.344C306.276 207.807 307.89 208.181 309.88 208.181Z" fill="#CF804A"/>
<path id="Vector_63" d="M288.534 208.181C290.524 208.181 292.138 207.807 292.138 207.344C292.138 206.882 290.524 206.507 288.534 206.507C286.543 206.507 284.93 206.882 284.93 207.344C284.93 207.807 286.543 208.181 288.534 208.181Z" fill="#CF804A"/>
<path id="Vector_64" d="M307.731 195.347C306.623 195.347 305.098 195.556 304.336 195.696C304.058 195.766 303.85 195.905 303.712 196.184C303.504 196.742 303.989 197.37 304.613 197.3C310.365 196.533 312.86 197.091 314.108 197.3C315.355 197.509 316.325 197.649 316.603 197.579C316.672 197.579 316.672 197.44 316.603 197.44C315.84 196.324 312.306 195.347 307.731 195.347Z" fill="#333333"/>
<path id="Vector_65" d="M290.613 195.347C291.722 195.347 293.247 195.556 294.009 195.696C294.286 195.766 294.494 195.905 294.633 196.184C294.841 196.742 294.356 197.37 293.732 197.3C287.979 196.533 285.484 197.091 284.237 197.3C282.989 197.509 282.019 197.649 281.742 197.579C281.673 197.579 281.673 197.44 281.742 197.44C282.574 196.324 286.108 195.347 290.613 195.347Z" fill="#333333"/>
<path id="Vector_66" d="M298.514 177.561V165.006C290.544 165.215 289.227 163.331 277.376 174.422C274.326 177.282 275.366 186.559 275.089 187.605C274.881 188.442 275.435 196.603 275.782 200.579C276.752 198.974 278.762 195.417 278.762 193.882C278.762 191.999 279.247 189.907 280.148 189.279C281.049 188.651 284.445 186.14 284.653 184.885C284.861 183.629 286.94 182.164 288.534 182.164C290.128 182.164 291.93 179.862 292.138 179.025C292.346 178.188 293.247 177.561 294.425 177.142C295.326 176.793 297.544 177.282 298.514 177.561Z" fill="black" stroke="black" stroke-width="0.992242"/>
<path id="Vector_67" d="M299.415 177.561V165.006C307.385 165.215 308.702 163.331 320.484 174.422C323.533 177.282 322.494 186.559 322.771 187.605C322.979 188.442 322.425 196.603 322.078 200.579C321.108 198.974 319.098 195.417 319.098 193.882C319.098 191.999 318.613 189.907 317.712 189.279C316.811 188.651 313.415 186.14 313.207 184.885C312.999 183.629 310.92 182.164 309.326 182.164C307.732 182.164 305.93 179.862 305.722 179.025C305.514 178.188 304.613 177.561 303.435 177.142C302.603 176.793 300.385 177.282 299.415 177.561Z" fill="black" stroke="black" stroke-width="0.992242"/>
</g>
</g>
</g>
</svg>
